<?xml version="1.0" encoding="UTF-8" standalone="no"?>
<!DOCTYPE svg PUBLIC "-//W3C//DTD SVG 1.1//EN"
 "http://www.w3.org/Graphics/SVG/1.1/DTD/svg11.dtd">
<!-- Generated by graphviz version 14.1.4 (20260321.0153)
 -->
<!-- Title: PiLabFlow Pages: 1 -->
<svg width="1366pt" height="3458pt"
 viewBox="0.00 0.00 1366.00 3458.00" xmlns="http://www.w3.org/2000/svg" xmlns:xlink="http://www.w3.org/1999/xlink">
<g id="graph0" class="graph" transform="scale(2.66667 2.66667) rotate(0) translate(25.2 1271.45)">
<title>PiLabFlow</title>
<polygon fill="white" stroke="none" points="-25.2,25.2 -25.2,-1271.45 486.98,-1271.45 486.98,25.2 -25.2,25.2"/>
<text xml:space="preserve" text-anchor="middle" x="230.89" y="-1228.95" font-family="Arial" font-size="14.00" fill="#404040">pi&#45;lab extension flow</text>
<!-- userPrompt -->
<g id="node1" class="node">
<title>userPrompt</title>
<ellipse fill="#eef2ff" stroke="#c7d2fe" cx="285.75" cy="-1197.75" rx="51.09" ry="24.75"/>
<text xml:space="preserve" text-anchor="middle" x="285.75" y="-1200.8" font-family="Arial" font-size="11.00" fill="#171717">User / LLM</text>
<text xml:space="preserve" text-anchor="middle" x="285.75" y="-1187.3" font-family="Arial" font-size="11.00" fill="#171717">invokes tool</text>
</g>
<!-- intercept -->
<g id="node2" class="node">
<title>intercept</title>
<path fill="#f8fafc" stroke="#cbd5e1" d="M357.88,-1122C357.88,-1122 213.62,-1122 213.62,-1122 207.62,-1122 201.62,-1116 201.62,-1110 201.62,-1110 201.62,-1098 201.62,-1098 201.62,-1092 207.62,-1086 213.62,-1086 213.62,-1086 357.88,-1086 357.88,-1086 363.88,-1086 369.88,-1092 369.88,-1098 369.88,-1098 369.88,-1110 369.88,-1110 369.88,-1116 363.88,-1122 357.88,-1122"/>
<text xml:space="preserve" text-anchor="middle" x="285.75" y="-1107.05" font-family="Arial" font-size="11.00" fill="#171717">Stage 1: Intercept</text>
<text xml:space="preserve" text-anchor="middle" x="285.75" y="-1093.55" font-family="Arial" font-size="11.00" fill="#171717">match tool.name + trigger gates</text>
</g>
<!-- userPrompt&#45;&gt;intercept -->
<g id="edge1" class="edge">
<title>userPrompt&#45;&gt;intercept</title>
<path fill="none" stroke="#94a3b8" d="M285.75,-1172.64C285.75,-1159.66 285.75,-1143.66 285.75,-1130.48"/>
<polygon fill="#94a3b8" stroke="#94a3b8" points="285.75,-1123.5 288.9,-1130.5 285.75,-1125.78 285.75,-1130.5 285.75,-1130.5 285.75,-1130.5 285.75,-1125.78 282.6,-1130.5 285.75,-1123.5"/>
</g>
<!-- loadCfg -->
<g id="node3" class="node">
<title>loadCfg</title>
<path fill="#f8fafc" stroke="#cbd5e1" d="M359,-1035C359,-1035 212.5,-1035 212.5,-1035 206.5,-1035 200.5,-1029 200.5,-1023 200.5,-1023 200.5,-998.5 200.5,-998.5 200.5,-992.5 206.5,-986.5 212.5,-986.5 212.5,-986.5 359,-986.5 359,-986.5 365,-986.5 371,-992.5 371,-998.5 371,-998.5 371,-1023 371,-1023 371,-1029 365,-1035 359,-1035"/>
<text xml:space="preserve" text-anchor="middle" x="285.75" y="-1020.55" font-family="Arial" font-size="11.00" fill="#171717">Load experiments</text>
<text xml:space="preserve" text-anchor="middle" x="285.75" y="-1007.05" font-family="Arial" font-size="11.00" fill="#171717">(project + package dirs + global)</text>
<text xml:space="preserve" text-anchor="middle" x="285.75" y="-993.55" font-family="Arial" font-size="11.00" fill="#171717">JSON&#45;only</text>
</g>
<!-- intercept&#45;&gt;loadCfg -->
<g id="edge2" class="edge">
<title>intercept&#45;&gt;loadCfg</title>
<path fill="none" stroke="#94a3b8" d="M285.75,-1085.84C285.75,-1073.93 285.75,-1057.7 285.75,-1043.48"/>
<polygon fill="#94a3b8" stroke="#94a3b8" points="285.75,-1036.6 288.9,-1043.6 285.75,-1038.88 285.75,-1043.6 285.75,-1043.6 285.75,-1043.6 285.75,-1038.88 282.6,-1043.6 285.75,-1036.6"/>
</g>
<!-- forkLanes -->
<g id="node4" class="node">
<title>forkLanes</title>
<path fill="#f8fafc" stroke="#cbd5e1" d="M348.88,-935.5C348.88,-935.5 222.62,-935.5 222.62,-935.5 216.62,-935.5 210.62,-929.5 210.62,-923.5 210.62,-923.5 210.62,-911.5 210.62,-911.5 210.62,-905.5 216.62,-899.5 222.62,-899.5 222.62,-899.5 348.88,-899.5 348.88,-899.5 354.88,-899.5 360.88,-905.5 360.88,-911.5 360.88,-911.5 360.88,-923.5 360.88,-923.5 360.88,-929.5 354.88,-935.5 348.88,-935.5"/>
<text xml:space="preserve" text-anchor="middle" x="285.75" y="-920.55" font-family="Arial" font-size="11.00" fill="#171717">Stage 2: Fork lanes</text>
<text xml:space="preserve" text-anchor="middle" x="285.75" y="-907.05" font-family="Arial" font-size="11.00" fill="#171717">create isolated git worktrees</text>
</g>
<!-- loadCfg&#45;&gt;forkLanes -->
<g id="edge3" class="edge">
<title>loadCfg&#45;&gt;forkLanes</title>
<path fill="none" stroke="#94a3b8" d="M285.75,-986.25C285.75,-973.22 285.75,-957.01 285.75,-943.71"/>
<polygon fill="#94a3b8" stroke="#94a3b8" points="285.75,-937.08 288.9,-944.08 285.75,-939.37 285.75,-944.08 285.75,-944.08 285.75,-944.08 285.75,-939.37 282.6,-944.08 285.75,-937.08"/>
</g>
<!-- execStrat -->
<g id="node5" class="node">
<title>execStrat</title>
<path fill="#f8fafc" stroke="#cbd5e1" d="M388.62,-848.5C388.62,-848.5 182.88,-848.5 182.88,-848.5 176.88,-848.5 170.88,-842.5 170.88,-836.5 170.88,-836.5 170.88,-824.5 170.88,-824.5 170.88,-818.5 176.88,-812.5 182.88,-812.5 182.88,-812.5 388.62,-812.5 388.62,-812.5 394.62,-812.5 400.62,-818.5 400.62,-824.5 400.62,-824.5 400.62,-836.5 400.62,-836.5 400.62,-842.5 394.62,-848.5 388.62,-848.5"/>
<text xml:space="preserve" text-anchor="middle" x="285.75" y="-833.55" font-family="Arial" font-size="11.00" fill="#171717">Stage 3: Execute strategy</text>
<text xml:space="preserve" text-anchor="middle" x="285.75" y="-820.05" font-family="Arial" font-size="11.00" fill="#171717">fixed_args / lane_single_call / lane_multi_call</text>
</g>
<!-- forkLanes&#45;&gt;execStrat -->
<g id="edge4" class="edge">
<title>forkLanes&#45;&gt;execStrat</title>
<path fill="none" stroke="#94a3b8" d="M285.75,-899.3C285.75,-887.17 285.75,-870.71 285.75,-857.05"/>
<polygon fill="#94a3b8" stroke="#94a3b8" points="285.75,-850.19 288.9,-857.19 285.75,-852.47 285.75,-857.19 285.75,-857.19 285.75,-857.19 285.75,-852.47 282.6,-857.19 285.75,-850.19"/>
</g>
<!-- directTry -->
<g id="node6" class="node">
<title>directTry</title>
<path fill="#f8fafc" stroke="#cbd5e1" d="M251.62,-750.5C251.62,-750.5 165.88,-750.5 165.88,-750.5 159.88,-750.5 153.88,-744.5 153.88,-738.5 153.88,-738.5 153.88,-726.5 153.88,-726.5 153.88,-720.5 159.88,-714.5 165.88,-714.5 165.88,-714.5 251.62,-714.5 251.62,-714.5 257.62,-714.5 263.62,-720.5 263.62,-726.5 263.62,-726.5 263.62,-738.5 263.62,-738.5 263.62,-744.5 257.62,-750.5 251.62,-750.5"/>
<text xml:space="preserve" text-anchor="middle" x="208.75" y="-735.55" font-family="Arial" font-size="11.00" fill="#171717">fixed_args fast path</text>
<text xml:space="preserve" text-anchor="middle" x="208.75" y="-722.05" font-family="Arial" font-size="11.00" fill="#171717">try direct harness</text>
</g>
<!-- execStrat&#45;&gt;directTry -->
<g id="edge5" class="edge">
<title>execStrat&#45;&gt;directTry</title>
<path fill="none" stroke="#94a3b8" d="M271.98,-812.34C259.58,-796.87 241.23,-774 227.49,-756.87"/>
<polygon fill="#94a3b8" stroke="#94a3b8" points="223.42,-751.79 230.26,-755.28 224.85,-753.57 227.8,-757.25 227.8,-757.25 227.8,-757.25 224.85,-753.57 225.34,-759.22 223.42,-751.79"/>
<text xml:space="preserve" text-anchor="middle" x="278.49" y="-778" font-family="Arial" font-size="10.00" fill="#525252">if fixed_args</text>
</g>
<!-- promptRun -->
<g id="node8" class="node">
<title>promptRun</title>
<path fill="#f8fafc" stroke="#cbd5e1" d="M348.38,-508.5C348.38,-508.5 237.12,-508.5 237.12,-508.5 231.12,-508.5 225.12,-502.5 225.12,-496.5 225.12,-496.5 225.12,-472 225.12,-472 225.12,-466 231.12,-460 237.12,-460 237.12,-460 348.38,-460 348.38,-460 354.38,-460 360.38,-466 360.38,-472 360.38,-472 360.38,-496.5 360.38,-496.5 360.38,-502.5 354.38,-508.5 348.38,-508.5"/>
<text xml:space="preserve" text-anchor="middle" x="292.75" y="-494.05" font-family="Arial" font-size="11.00" fill="#171717">Fallback / prompt path</text>
<text xml:space="preserve" text-anchor="middle" x="292.75" y="-480.55" font-family="Arial" font-size="11.00" fill="#171717">run lane in pi subprocess</text>
<text xml:space="preserve" text-anchor="middle" x="292.75" y="-467.05" font-family="Arial" font-size="11.00" fill="#171717">with lane extensions</text>
</g>
<!-- execStrat&#45;&gt;promptRun -->
<g id="edge6" class="edge">
<title>execStrat&#45;&gt;promptRun</title>
<path fill="none" stroke="#94a3b8" d="M300.55,-812.3C305.79,-805.12 311.06,-796.39 313.75,-787.5 315.3,-782.4 313.89,-780.83 313.75,-775.5 311.53,-689.64 310.8,-668.1 303.75,-582.5 301.94,-560.52 299.14,-535.83 296.81,-516.83"/>
<polygon fill="#94a3b8" stroke="#94a3b8" points="295.97,-510 299.96,-516.56 296.25,-512.27 296.83,-516.95 296.83,-516.95 296.83,-516.95 296.25,-512.27 293.7,-517.34 295.97,-510"/>
<text xml:space="preserve" text-anchor="middle" x="386.41" y="-680" font-family="Arial" font-size="10.00" fill="#525252">if lane_single_call / lane_multi_call</text>
</g>
<!-- directFail -->
<g id="node7" class="node">
<title>directFail</title>
<path fill="#fff7ed" stroke="#fdba74" d="M131.1,-649.64C131.1,-649.64 11.65,-620.36 11.65,-620.36 5.83,-618.93 5.83,-616.07 11.65,-614.64 11.65,-614.64 131.1,-585.36 131.1,-585.36 136.92,-583.93 148.58,-583.93 154.4,-585.36 154.4,-585.36 273.85,-614.64 273.85,-614.64 279.67,-616.07 279.67,-618.93 273.85,-620.36 273.85,-620.36 154.4,-649.64 154.4,-649.64 148.58,-651.07 136.92,-651.07 131.1,-649.64"/>
<text xml:space="preserve" text-anchor="middle" x="142.75" y="-620.55" font-family="Arial" font-size="11.00" fill="#171717">Direct supports lane?</text>
<text xml:space="preserve" text-anchor="middle" x="142.75" y="-607.05" font-family="Arial" font-size="11.00" fill="#171717">(full extension semantics?)</text>
</g>
<!-- directTry&#45;&gt;directFail -->
<g id="edge7" class="edge">
<title>directTry&#45;&gt;directFail</title>
<path fill="none" stroke="#94a3b8" d="M198.73,-714.34C189.63,-698.76 175.91,-675.27 164.33,-655.44"/>
<polygon fill="#94a3b8" stroke="#94a3b8" points="160.95,-649.66 167.2,-654.11 162.1,-651.63 164.48,-655.7 164.48,-655.7 164.48,-655.7 162.1,-651.63 161.76,-657.29 160.95,-649.66"/>
</g>
<!-- directFail&#45;&gt;promptRun -->
<g id="edge9" class="edge">
<title>directFail&#45;&gt;promptRun</title>
<path fill="none" stroke="#94a3b8" d="M173.47,-589.62C198.7,-567.54 234.35,-536.35 260.1,-513.82"/>
<polygon fill="#94a3b8" stroke="#94a3b8" points="265.17,-509.38 261.98,-516.36 263.46,-510.88 259.91,-513.99 259.91,-513.99 259.91,-513.99 263.46,-510.88 257.83,-511.62 265.17,-509.38"/>
<text xml:space="preserve" text-anchor="middle" x="255.47" y="-548" font-family="Arial" font-size="10.00" fill="#525252">no</text>
<text xml:space="preserve" text-anchor="middle" x="255.47" y="-536" font-family="Arial" font-size="10.00" fill="#525252">(fallback)</text>
</g>
<!-- laneRuns -->
<g id="node9" class="node">
<title>laneRuns</title>
<path fill="#f8fafc" stroke="#cbd5e1" d="M227.62,-409C227.62,-409 99.88,-409 99.88,-409 93.88,-409 87.88,-403 87.88,-397 87.88,-397 87.88,-372.5 87.88,-372.5 87.88,-366.5 93.88,-360.5 99.88,-360.5 99.88,-360.5 227.62,-360.5 227.62,-360.5 233.62,-360.5 239.62,-366.5 239.62,-372.5 239.62,-372.5 239.62,-397 239.62,-397 239.62,-403 233.62,-409 227.62,-409"/>
<text xml:space="preserve" text-anchor="middle" x="163.75" y="-394.55" font-family="Arial" font-size="11.00" fill="#171717">Collect lane records</text>
<text xml:space="preserve" text-anchor="middle" x="163.75" y="-381.05" font-family="Arial" font-size="11.00" fill="#171717">latency, status, patch/output,</text>
<text xml:space="preserve" text-anchor="middle" x="163.75" y="-367.55" font-family="Arial" font-size="11.00" fill="#171717">harness + fallback telemetry</text>
</g>
<!-- directFail&#45;&gt;laneRuns -->
<g id="edge8" class="edge">
<title>directFail&#45;&gt;laneRuns</title>
<path fill="none" stroke="#94a3b8" d="M145.8,-582.95C149.84,-538.56 156.91,-460.88 160.87,-417.45"/>
<polygon fill="#94a3b8" stroke="#94a3b8" points="161.48,-410.71 163.98,-417.96 161.27,-412.98 160.84,-417.68 160.84,-417.68 160.84,-417.68 161.27,-412.98 157.71,-417.39 161.48,-410.71"/>
<text xml:space="preserve" text-anchor="middle" x="180.19" y="-486.75" font-family="Arial" font-size="10.00" fill="#525252">yes</text>
<text xml:space="preserve" text-anchor="middle" x="180.19" y="-474.75" font-family="Arial" font-size="10.00" fill="#525252">(run direct)</text>
</g>
<!-- promptRun&#45;&gt;laneRuns -->
<g id="edge10" class="edge">
<title>promptRun&#45;&gt;laneRuns</title>
<path fill="none" stroke="#94a3b8" d="M261.52,-459.65C243.43,-445.98 220.54,-428.67 201.45,-414.25"/>
<polygon fill="#94a3b8" stroke="#94a3b8" points="196.11,-410.21 203.59,-411.92 197.93,-411.58 201.69,-414.43 201.69,-414.43 201.69,-414.43 197.93,-411.58 199.79,-416.94 196.11,-410.21"/>
</g>
<!-- winnerSel -->
<g id="node10" class="node">
<title>winnerSel</title>
<path fill="#f8fafc" stroke="#cbd5e1" d="M236.62,-309.5C236.62,-309.5 90.88,-309.5 90.88,-309.5 84.88,-309.5 78.88,-303.5 78.88,-297.5 78.88,-297.5 78.88,-285.5 78.88,-285.5 78.88,-279.5 84.88,-273.5 90.88,-273.5 90.88,-273.5 236.62,-273.5 236.62,-273.5 242.62,-273.5 248.62,-279.5 248.62,-285.5 248.62,-285.5 248.62,-297.5 248.62,-297.5 248.62,-303.5 242.62,-309.5 236.62,-309.5"/>
<text xml:space="preserve" text-anchor="middle" x="163.75" y="-294.55" font-family="Arial" font-size="11.00" fill="#171717">Stage 4: Choose winner</text>
<text xml:space="preserve" text-anchor="middle" x="163.75" y="-281.05" font-family="Arial" font-size="11.00" fill="#171717">hardcoded / formula / llm / blend</text>
</g>
<!-- laneRuns&#45;&gt;winnerSel -->
<g id="edge11" class="edge">
<title>laneRuns&#45;&gt;winnerSel</title>
<path fill="none" stroke="#94a3b8" d="M163.75,-360.25C163.75,-347.22 163.75,-331.01 163.75,-317.71"/>
<polygon fill="#94a3b8" stroke="#94a3b8" points="163.75,-311.08 166.9,-318.08 163.75,-313.37 163.75,-318.08 163.75,-318.08 163.75,-318.08 163.75,-313.37 160.6,-318.08 163.75,-311.08"/>
</g>
<!-- apply -->
<g id="node11" class="node">
<title>apply</title>
<path fill="#f8fafc" stroke="#cbd5e1" d="M223.5,-222.5C223.5,-222.5 104,-222.5 104,-222.5 98,-222.5 92,-216.5 92,-210.5 92,-210.5 92,-186 92,-186 92,-180 98,-174 104,-174 104,-174 223.5,-174 223.5,-174 229.5,-174 235.5,-180 235.5,-186 235.5,-186 235.5,-210.5 235.5,-210.5 235.5,-216.5 229.5,-222.5 223.5,-222.5"/>
<text xml:space="preserve" text-anchor="middle" x="163.75" y="-208.05" font-family="Arial" font-size="11.00" fill="#171717">Stage 5: Apply result</text>
<text xml:space="preserve" text-anchor="middle" x="163.75" y="-194.55" font-family="Arial" font-size="11.00" fill="#171717">apply winning patch/output</text>
<text xml:space="preserve" text-anchor="middle" x="163.75" y="-181.05" font-family="Arial" font-size="11.00" fill="#171717">(or fallback policy)</text>
</g>
<!-- winnerSel&#45;&gt;apply -->
<g id="edge12" class="edge">
<title>winnerSel&#45;&gt;apply</title>
<path fill="none" stroke="#94a3b8" d="M163.75,-273.34C163.75,-261.43 163.75,-245.2 163.75,-230.98"/>
<polygon fill="#94a3b8" stroke="#94a3b8" points="163.75,-224.1 166.9,-231.1 163.75,-226.38 163.75,-231.1 163.75,-231.1 163.75,-231.1 163.75,-226.38 160.6,-231.1 163.75,-224.1"/>
</g>
<!-- artifacts -->
<g id="node12" class="node">
<title>artifacts</title>
<path fill="#f8fafc" stroke="#cbd5e1" d="M241.88,-123C241.88,-123 85.62,-123 85.62,-123 79.62,-123 73.62,-117 73.62,-111 73.62,-111 73.62,-99 73.62,-99 73.62,-93 79.62,-87 85.62,-87 85.62,-87 241.88,-87 241.88,-87 247.88,-87 253.88,-93 253.88,-99 253.88,-99 253.88,-111 253.88,-111 253.88,-117 247.88,-123 241.88,-123"/>
<text xml:space="preserve" text-anchor="middle" x="163.75" y="-108.05" font-family="Arial" font-size="11.00" fill="#171717">Stage 6: Persist telemetry</text>
<text xml:space="preserve" text-anchor="middle" x="163.75" y="-94.55" font-family="Arial" font-size="11.00" fill="#171717">run.json + lanes/*.json + artifacts/*</text>
</g>
<!-- apply&#45;&gt;artifacts -->
<g id="edge13" class="edge">
<title>apply&#45;&gt;artifacts</title>
<path fill="none" stroke="#94a3b8" d="M163.75,-173.75C163.75,-160.72 163.75,-144.51 163.75,-131.21"/>
<polygon fill="#94a3b8" stroke="#94a3b8" points="163.75,-124.58 166.9,-131.58 163.75,-126.87 163.75,-131.58 163.75,-131.58 163.75,-131.58 163.75,-126.87 160.6,-131.58 163.75,-124.58"/>
</g>
<!-- result -->
<g id="node13" class="node">
<title>result</title>
<ellipse fill="#ecfdf5" stroke="#86efac" cx="163.75" cy="-18" rx="70.75" ry="18"/>
<text xml:space="preserve" text-anchor="middle" x="163.75" y="-14.3" font-family="Arial" font-size="11.00" fill="#171717">Return winner result</text>
</g>
<!-- artifacts&#45;&gt;result -->
<g id="edge14" class="edge">
<title>artifacts&#45;&gt;result</title>
<path fill="none" stroke="#94a3b8" d="M163.75,-86.8C163.75,-74.67 163.75,-58.21 163.75,-44.55"/>
<polygon fill="#94a3b8" stroke="#94a3b8" points="163.75,-37.69 166.9,-44.69 163.75,-39.97 163.75,-44.69 163.75,-44.69 163.75,-44.69 163.75,-39.97 160.6,-44.69 163.75,-37.69"/>
</g>
</g>
</svg>
