<?xml version="1.0" encoding="UTF-8" standalone="no"?>
<!DOCTYPE svg PUBLIC "-//W3C//DTD SVG 1.1//EN"
 "http://www.w3.org/Graphics/SVG/1.1/DTD/svg11.dtd">
<!-- Generated by graphviz version 14.1.4 (20260321.0153)
 -->
<!-- Title: PiLabFlow Pages: 1 -->
<svg width="2800pt" height="2850pt"
 viewBox="0.00 0.00 2800.00 2850.00" xmlns="http://www.w3.org/2000/svg" xmlns:xlink="http://www.w3.org/1999/xlink">
<g id="graph0" class="graph" transform="scale(2.43008 2.43008) rotate(0) translate(32.4 1140.4)">
<title>PiLabFlow</title>
<polygon fill="white" stroke="none" points="-32.4,32.4 -32.4,-1140.4 1119.83,-1140.4 1119.83,32.4 -32.4,32.4"/>
<text xml:space="preserve" text-anchor="start" x="482.59" y="-1091.7" font-family="Arial" font-size="14.00" fill="#404040">pi&#45;lab extension flow</text>
<text xml:space="preserve" text-anchor="start" x="346.84" y="-1080.55" font-family="Arial" font-size="11.00" fill="#737373">intercept → isolate lanes → execute → choose winner → apply + persist telemetry</text>
<g id="clust1" class="cluster">
<title>cluster_exec</title>
<path fill="white" stroke="#e2e8f0" d="M141.18,-277C141.18,-277 846.17,-277 846.17,-277 852.18,-277 858.17,-283 858.17,-289 858.17,-289 858.17,-652 858.17,-652 858.17,-658 852.17,-664 846.17,-664 846.17,-664 141.17,-664 141.17,-664 135.17,-664 129.18,-658 129.18,-652 129.18,-652 129.18,-289 129.18,-289 129.18,-283 135.18,-277 141.18,-277"/>
<text xml:space="preserve" text-anchor="middle" x="493.68" y="-649.55" font-family="Arial" font-size="11.00" fill="#475569">3. Execute strategy</text>
</g>
<g id="clust2" class="cluster">
<title>cluster_lane_model</title>
<path fill="white" stroke="#e2e8f0" stroke-dasharray="5,2" d="M732.17,-893.5C732.17,-893.5 948.17,-893.5 948.17,-893.5 954.17,-893.5 960.17,-899.5 960.17,-905.5 960.17,-905.5 960.17,-1055 960.17,-1055 960.17,-1061 954.17,-1067 948.17,-1067 948.17,-1067 732.17,-1067 732.17,-1067 726.17,-1067 720.17,-1061 720.17,-1055 720.17,-1055 720.17,-905.5 720.17,-905.5 720.17,-899.5 726.17,-893.5 732.17,-893.5"/>
<text xml:space="preserve" text-anchor="middle" x="840.17" y="-1052.55" font-family="Arial" font-size="11.00" fill="#475569">Lane model</text>
</g>
<!-- user -->
<g id="node1" class="node">
<title>user</title>
<ellipse fill="#eef2ff" stroke="#c7d2fe" stroke-width="1.1" cx="562.17" cy="-1019.5" rx="125.05" ry="23"/>
<text xml:space="preserve" text-anchor="start" x="535.55" y="-1020.55" font-family="Arial" font-size="11.00" fill="#171717">User / LLM</text>
<text xml:space="preserve" text-anchor="start" x="484.55" y="-1010.5" font-family="Arial" font-size="10.00" fill="#525252">calls edit or another intercepted tool</text>
</g>
<!-- intercept -->
<g id="node2" class="node">
<title>intercept</title>
<path fill="#f8fafc" stroke="#cbd5e1" stroke-width="1.1" d="M630.35,-937.5C630.35,-937.5 494,-937.5 494,-937.5 488,-937.5 482,-931.5 482,-925.5 482,-925.5 482,-913.5 482,-913.5 482,-907.5 488,-901.5 494,-901.5 494,-901.5 630.35,-901.5 630.35,-901.5 636.35,-901.5 642.35,-907.5 642.35,-913.5 642.35,-913.5 642.35,-925.5 642.35,-925.5 642.35,-931.5 636.35,-937.5 630.35,-937.5"/>
<text xml:space="preserve" text-anchor="start" x="515.67" y="-920.55" font-family="Arial" font-size="11.00" fill="#171717">1. Intercept tool call</text>
<text xml:space="preserve" text-anchor="start" x="492.8" y="-910.5" font-family="Arial" font-size="10.00" fill="#525252">match tool.name + trigger gates</text>
</g>
<!-- user&#45;&gt;intercept -->
<g id="edge8" class="edge">
<title>user&#45;&gt;intercept</title>
<path fill="none" stroke="#94a3b8" d="M562.17,-996.26C562.17,-981.02 562.17,-960.8 562.17,-945.08"/>
<polygon fill="#94a3b8" stroke="#94a3b8" points="562.18,-938.99 565.1,-945.49 562.18,-941.02 562.18,-945.49 562.18,-945.49 562.18,-945.49 562.18,-941.02 559.25,-945.49 562.18,-938.99"/>
</g>
<!-- config -->
<g id="node3" class="node">
<title>config</title>
<path fill="#f8fafc" stroke="#cbd5e1" stroke-width="1.1" d="M683.22,-833C683.22,-833 441.12,-833 441.12,-833 435.12,-833 429.12,-827 429.12,-821 429.12,-821 429.12,-809 429.12,-809 429.12,-803 435.12,-797 441.12,-797 441.12,-797 683.22,-797 683.22,-797 689.22,-797 695.22,-803 695.22,-809 695.22,-809 695.22,-821 695.22,-821 695.22,-827 689.22,-833 683.22,-833"/>
<text xml:space="preserve" text-anchor="start" x="506.3" y="-816.05" font-family="Arial" font-size="11.00" fill="#171717">Load experiment config</text>
<text xml:space="preserve" text-anchor="start" x="439.92" y="-806" font-family="Arial" font-size="10.00" fill="#525252">project JSON + package experimentDirs + global JSON</text>
</g>
<!-- intercept&#45;&gt;config -->
<g id="edge9" class="edge">
<title>intercept&#45;&gt;config</title>
<path fill="none" stroke="#94a3b8" d="M562.17,-901.11C562.17,-884.62 562.17,-859.66 562.17,-841.03"/>
<polygon fill="#94a3b8" stroke="#94a3b8" points="562.18,-834.69 565.1,-841.19 562.18,-836.72 562.18,-841.19 562.18,-841.19 562.18,-841.19 562.18,-836.72 559.25,-841.19 562.18,-834.69"/>
</g>
<!-- isolate -->
<g id="node4" class="node">
<title>isolate</title>
<path fill="#f8fafc" stroke="#cbd5e1" stroke-width="1.1" d="M622.47,-738C622.47,-738 501.87,-738 501.87,-738 495.87,-738 489.87,-732 489.87,-726 489.87,-726 489.87,-714 489.87,-714 489.87,-708 495.87,-702 501.87,-702 501.87,-702 622.47,-702 622.47,-702 628.47,-702 634.47,-708 634.47,-714 634.47,-714 634.47,-726 634.47,-726 634.47,-732 628.47,-738 622.47,-738"/>
<text xml:space="preserve" text-anchor="start" x="531.05" y="-721.05" font-family="Arial" font-size="11.00" fill="#171717">2. Fork lanes</text>
<text xml:space="preserve" text-anchor="start" x="500.67" y="-711" font-family="Arial" font-size="10.00" fill="#525252">create isolated git worktrees</text>
</g>
<!-- config&#45;&gt;isolate -->
<g id="edge10" class="edge">
<title>config&#45;&gt;isolate</title>
<path fill="none" stroke="#94a3b8" d="M562.17,-796.51C562.17,-782.22 562.17,-761.85 562.17,-745.86"/>
<polygon fill="#94a3b8" stroke="#94a3b8" points="562.18,-739.63 565.1,-746.13 562.18,-741.66 562.18,-746.13 562.18,-746.13 562.18,-746.13 562.18,-741.66 559.25,-746.13 562.18,-739.63"/>
</g>
<!-- fixed -->
<g id="node8" class="node">
<title>fixed</title>
<path fill="#f8fafc" stroke="#cbd5e1" stroke-width="1.1" d="M409.6,-634.5C409.6,-634.5 232.75,-634.5 232.75,-634.5 226.75,-634.5 220.75,-628.5 220.75,-622.5 220.75,-622.5 220.75,-610.5 220.75,-610.5 220.75,-604.5 226.75,-598.5 232.75,-598.5 232.75,-598.5 409.6,-598.5 409.6,-598.5 415.6,-598.5 421.6,-604.5 421.6,-610.5 421.6,-610.5 421.6,-622.5 421.6,-622.5 421.6,-628.5 415.6,-634.5 409.6,-634.5"/>
<text xml:space="preserve" text-anchor="start" x="296.43" y="-617.55" font-family="Arial" font-size="11.00" fill="#171717">fixed_args</text>
<text xml:space="preserve" text-anchor="start" x="231.55" y="-607.5" font-family="Arial" font-size="10.00" fill="#525252">all lanes share the same intercepted args</text>
</g>
<!-- isolate&#45;&gt;fixed -->
<g id="edge11" class="edge">
<title>isolate&#45;&gt;fixed</title>
<path fill="none" stroke="#94a3b8" d="M520.75,-701.55C478.72,-683.85 413.71,-656.47 369.39,-637.81"/>
<polygon fill="#94a3b8" stroke="#94a3b8" points="363.59,-635.36 370.71,-635.19 365.46,-636.15 369.58,-637.89 369.58,-637.89 369.58,-637.89 365.46,-636.15 368.44,-640.58 363.59,-635.36"/>
</g>
<!-- single -->
<g id="node9" class="node">
<title>single</title>
<path fill="#f8fafc" stroke="#cbd5e1" stroke-width="1.1" d="M610.85,-425.5C610.85,-425.5 495.5,-425.5 495.5,-425.5 489.5,-425.5 483.5,-419.5 483.5,-413.5 483.5,-413.5 483.5,-401.5 483.5,-401.5 483.5,-395.5 489.5,-389.5 495.5,-389.5 495.5,-389.5 610.85,-389.5 610.85,-389.5 616.85,-389.5 622.85,-395.5 622.85,-401.5 622.85,-401.5 622.85,-413.5 622.85,-413.5 622.85,-419.5 616.85,-425.5 610.85,-425.5"/>
<text xml:space="preserve" text-anchor="start" x="515.3" y="-408.55" font-family="Arial" font-size="11.00" fill="#171717">lane_single_call</text>
<text xml:space="preserve" text-anchor="start" x="494.3" y="-398.5" font-family="Arial" font-size="10.00" fill="#525252">one target&#45;tool call per lane</text>
</g>
<!-- isolate&#45;&gt;single -->
<g id="edge12" class="edge">
<title>isolate&#45;&gt;single</title>
<path fill="none" stroke="#94a3b8" d="M561.68,-701.86C560.18,-650.03 555.67,-494.73 553.9,-433.61"/>
<polygon fill="#94a3b8" stroke="#94a3b8" points="553.72,-427.18 556.83,-433.6 553.78,-429.21 553.9,-433.68 553.9,-433.68 553.9,-433.68 553.78,-429.21 550.98,-433.77 553.72,-427.18"/>
</g>
<!-- multi -->
<g id="node10" class="node">
<title>multi</title>
<path fill="#f8fafc" stroke="#cbd5e1" stroke-width="1.1" d="M837.85,-425.5C837.85,-425.5 674.5,-425.5 674.5,-425.5 668.5,-425.5 662.5,-419.5 662.5,-413.5 662.5,-413.5 662.5,-401.5 662.5,-401.5 662.5,-395.5 668.5,-389.5 674.5,-389.5 674.5,-389.5 837.85,-389.5 837.85,-389.5 843.85,-389.5 849.85,-395.5 849.85,-401.5 849.85,-401.5 849.85,-413.5 849.85,-413.5 849.85,-419.5 843.85,-425.5 837.85,-425.5"/>
<text xml:space="preserve" text-anchor="start" x="720.92" y="-408.55" font-family="Arial" font-size="11.00" fill="#171717">lane_multi_call</text>
<text xml:space="preserve" text-anchor="start" x="673.3" y="-398.5" font-family="Arial" font-size="10.00" fill="#525252">lane&#45;specific replanning / tool chaining</text>
</g>
<!-- isolate&#45;&gt;multi -->
<g id="edge13" class="edge">
<title>isolate&#45;&gt;multi</title>
<path fill="none" stroke="#94a3b8" d="M573.67,-701.59C579.29,-693.01 586.14,-682.49 592.17,-673 648.28,-584.79 713.26,-478.83 741.65,-432.33"/>
<polygon fill="#94a3b8" stroke="#94a3b8" points="744.93,-426.96 744.04,-434.03 743.87,-428.69 741.54,-432.5 741.54,-432.5 741.54,-432.5 743.87,-428.69 739.05,-430.98 744.93,-426.96"/>
</g>
<!-- winner -->
<g id="node5" class="node">
<title>winner</title>
<path fill="#fefce8" stroke="#fde68a" stroke-width="1.1" d="M203.1,-226C203.1,-226 65.25,-226 65.25,-226 59.25,-226 53.25,-220 53.25,-214 53.25,-214 53.25,-202 53.25,-202 53.25,-196 59.25,-190 65.25,-190 65.25,-190 203.1,-190 203.1,-190 209.1,-190 215.1,-196 215.1,-202 215.1,-202 215.1,-214 215.1,-214 215.1,-220 209.1,-226 203.1,-226"/>
<text xml:space="preserve" text-anchor="start" x="91.8" y="-209.05" font-family="Arial" font-size="11.00" fill="#171717">4. Choose winner</text>
<text xml:space="preserve" text-anchor="start" x="64.05" y="-199" font-family="Arial" font-size="10.00" fill="#525252">hardcoded / formula / llm / blend</text>
</g>
<!-- apply -->
<g id="node6" class="node">
<title>apply</title>
<path fill="#ecfdf5" stroke="#86efac" stroke-width="1.1" d="M221.85,-131C221.85,-131 46.5,-131 46.5,-131 40.5,-131 34.5,-125 34.5,-119 34.5,-119 34.5,-107 34.5,-107 34.5,-101 40.5,-95 46.5,-95 46.5,-95 221.85,-95 221.85,-95 227.85,-95 233.85,-101 233.85,-107 233.85,-107 233.85,-119 233.85,-119 233.85,-125 227.85,-131 221.85,-131"/>
<text xml:space="preserve" text-anchor="start" x="79.05" y="-114.05" font-family="Arial" font-size="11.00" fill="#171717">5. Apply selected result</text>
<text xml:space="preserve" text-anchor="start" x="45.3" y="-104" font-family="Arial" font-size="10.00" fill="#525252">patch/output returned to main workspace</text>
</g>
<!-- winner&#45;&gt;apply -->
<g id="edge16" class="edge">
<title>winner&#45;&gt;apply</title>
<path fill="none" stroke="#94a3b8" d="M134.18,-189.51C134.18,-175.22 134.18,-154.85 134.18,-138.86"/>
<polygon fill="#94a3b8" stroke="#94a3b8" points="134.18,-132.63 137.1,-139.13 134.18,-134.66 134.18,-139.13 134.18,-139.13 134.18,-139.13 134.18,-134.66 131.25,-139.13 134.18,-132.63"/>
</g>
<!-- telemetry -->
<g id="node7" class="node">
<title>telemetry</title>
<path fill="#eff6ff" stroke="#93c5fd" stroke-width="1.1" d="M256.35,-36C256.35,-36 12,-36 12,-36 6,-36 0,-30 0,-24 0,-24 0,-12 0,-12 0,-6 6,0 12,0 12,0 256.35,0 256.35,0 262.35,0 268.35,-6 268.35,-12 268.35,-12 268.35,-24 268.35,-24 268.35,-30 262.35,-36 256.35,-36"/>
<text xml:space="preserve" text-anchor="start" x="88.05" y="-19.05" font-family="Arial" font-size="11.00" fill="#171717">6. Persist telemetry</text>
<text xml:space="preserve" text-anchor="start" x="10.8" y="-9" font-family="Arial" font-size="10.00" fill="#525252">run.json, lane records, grading artifacts, fallback reasons</text>
</g>
<!-- winner&#45;&gt;telemetry -->
<g id="edge17" class="edge">
<title>winner&#45;&gt;telemetry</title>
<path fill="none" stroke="#94a3b8" d="M183.38,-189.46C209.42,-177.36 239.07,-158.44 254.18,-131 275.39,-92.45 227.36,-59.66 185.9,-39.7"/>
<polygon fill="#94a3b8" stroke="#94a3b8" points="180.15,-37.01 187.28,-37.12 181.99,-37.87 186.03,-39.77 186.03,-39.77 186.03,-39.77 181.99,-37.87 184.79,-42.42 180.15,-37.01"/>
<text xml:space="preserve" text-anchor="middle" x="318.61" y="-109.7" font-family="Arial" font-size="9.00" fill="#525252">selection + fallback metadata</text>
</g>
<!-- apply&#45;&gt;telemetry -->
<g id="edge18" class="edge">
<title>apply&#45;&gt;telemetry</title>
<path fill="none" stroke="#94a3b8" d="M134.18,-94.51C134.18,-80.22 134.18,-59.85 134.18,-43.86"/>
<polygon fill="#94a3b8" stroke="#94a3b8" points="134.18,-37.63 137.1,-44.13 134.18,-39.66 134.18,-44.13 134.18,-44.13 134.18,-44.13 134.18,-39.66 131.25,-44.13 134.18,-37.63"/>
</g>
<!-- direct -->
<g id="node11" class="node">
<title>direct</title>
<path fill="#f8fafc" stroke="#cbd5e1" stroke-width="1.1" d="M322.23,-530C322.23,-530 152.12,-530 152.12,-530 146.12,-530 140.12,-524 140.12,-518 140.12,-518 140.12,-506 140.12,-506 140.12,-500 146.12,-494 152.12,-494 152.12,-494 322.23,-494 322.23,-494 328.23,-494 334.23,-500 334.23,-506 334.23,-506 334.23,-518 334.23,-518 334.23,-524 328.23,-530 322.23,-530"/>
<text xml:space="preserve" text-anchor="start" x="201.93" y="-513.05" font-family="Arial" font-size="11.00" fill="#171717">direct fast path</text>
<text xml:space="preserve" text-anchor="start" x="150.93" y="-503" font-family="Arial" font-size="10.00" fill="#525252">optimization for simple fixed_args lanes</text>
</g>
<!-- fixed&#45;&gt;direct -->
<g id="edge1" class="edge">
<title>fixed&#45;&gt;direct</title>
<path fill="none" stroke="#94a3b8" d="M306.93,-598.11C292.93,-581.03 271.48,-554.87 256.07,-536.06"/>
<polygon fill="#94a3b8" stroke="#94a3b8" points="252.27,-531.42 258.65,-534.59 253.55,-532.99 256.39,-536.44 256.39,-536.44 256.39,-536.44 253.55,-532.99 254.12,-538.3 252.27,-531.42"/>
<text xml:space="preserve" text-anchor="middle" x="294.82" y="-560.95" font-family="Arial" font-size="9.00" fill="#525252">try first</text>
</g>
<!-- prompt -->
<g id="node12" class="node">
<title>prompt</title>
<path fill="#f8fafc" stroke="#cbd5e1" stroke-width="1.1" d="M392.6,-321C392.6,-321 257.75,-321 257.75,-321 251.75,-321 245.75,-315 245.75,-309 245.75,-309 245.75,-297 245.75,-297 245.75,-291 251.75,-285 257.75,-285 257.75,-285 392.6,-285 392.6,-285 398.6,-285 404.6,-291 404.6,-297 404.6,-297 404.6,-309 404.6,-309 404.6,-315 398.6,-321 392.6,-321"/>
<text xml:space="preserve" text-anchor="start" x="273.8" y="-304.05" font-family="Arial" font-size="11.00" fill="#171717">pi prompt subprocess</text>
<text xml:space="preserve" text-anchor="start" x="256.55" y="-294" font-family="Arial" font-size="10.00" fill="#525252">full extension&#45;bundle semantics</text>
</g>
<!-- fixed&#45;&gt;prompt -->
<g id="edge2" class="edge">
<title>fixed&#45;&gt;prompt</title>
<path fill="none" stroke="#94a3b8" d="M334.99,-597.99C359.11,-566 407.63,-495.02 421.18,-425.5 424.23,-409.8 427.72,-404.1 421.18,-389.5 409.04,-362.44 383.64,-340.43 362.01,-325.53"/>
<polygon fill="#94a3b8" stroke="#94a3b8" points="356.74,-322 363.77,-323.19 358.43,-323.13 362.14,-325.62 362.14,-325.62 362.14,-325.62 358.43,-323.13 360.52,-328.05 356.74,-322"/>
<text xml:space="preserve" text-anchor="middle" x="456.75" y="-456.45" font-family="Arial" font-size="9.00" fill="#525252">or force prompt mode</text>
</g>
<!-- single&#45;&gt;prompt -->
<g id="edge5" class="edge">
<title>single&#45;&gt;prompt</title>
<path fill="none" stroke="#94a3b8" d="M514.24,-389C474.48,-371.12 412.8,-343.39 370.78,-324.5"/>
<polygon fill="#94a3b8" stroke="#94a3b8" points="365.06,-321.93 372.19,-321.93 366.91,-322.76 370.99,-324.6 370.99,-324.6 370.99,-324.6 366.91,-322.76 369.79,-327.26 365.06,-321.93"/>
</g>
<!-- multi&#45;&gt;prompt -->
<g id="edge6" class="edge">
<title>multi&#45;&gt;prompt</title>
<path fill="none" stroke="#94a3b8" d="M682.57,-389C605.67,-370.71 485.38,-342.1 405.91,-323.2"/>
<polygon fill="#94a3b8" stroke="#94a3b8" points="400.02,-321.8 407.02,-320.46 402,-322.27 406.34,-323.3 406.34,-323.3 406.34,-323.3 402,-322.27 405.67,-326.15 400.02,-321.8"/>
</g>
<!-- direct&#45;&gt;winner -->
<g id="edge15" class="edge">
<title>direct&#45;&gt;winner</title>
<path fill="none" stroke="#94a3b8" d="M195.1,-493.55C167.44,-479.6 133.46,-457.11 117.18,-425.5 84.75,-362.59 109.02,-275.52 124.27,-233.56"/>
<polygon fill="#94a3b8" stroke="#94a3b8" points="126.48,-227.64 126.95,-234.75 125.77,-229.55 124.21,-233.73 124.21,-233.73 124.21,-233.73 125.77,-229.55 121.47,-232.71 126.48,-227.64"/>
<text xml:space="preserve" text-anchor="middle" x="126.02" y="-351.95" font-family="Arial" font-size="9.00" fill="#525252">if successful</text>
</g>
<!-- fallback -->
<g id="node13" class="node">
<title>fallback</title>
<path fill="#fff7ed" stroke="#fdba74" stroke-width="1.1" d="M389.48,-425.5C389.48,-425.5 148.88,-425.5 148.88,-425.5 142.88,-425.5 136.88,-419.5 136.88,-413.5 136.88,-413.5 136.88,-401.5 136.88,-401.5 136.88,-395.5 142.88,-389.5 148.88,-389.5 148.88,-389.5 389.48,-389.5 389.48,-389.5 395.48,-389.5 401.48,-395.5 401.48,-401.5 401.48,-401.5 401.48,-413.5 401.48,-413.5 401.48,-419.5 395.48,-425.5 389.48,-425.5"/>
<text xml:space="preserve" text-anchor="start" x="190.05" y="-408.55" font-family="Arial" font-size="11.00" fill="#171717">fallback when direct is insufficient</text>
<text xml:space="preserve" text-anchor="start" x="147.68" y="-398.5" font-family="Arial" font-size="10.00" fill="#525252">record lane_harness_requested / used / fallback_reason</text>
</g>
<!-- direct&#45;&gt;fallback -->
<g id="edge3" class="edge">
<title>direct&#45;&gt;fallback</title>
<path fill="none" stroke="#94a3b8" d="M231.79,-493.47C229.19,-482.06 227.49,-467.04 231.93,-454.5 234.87,-446.18 240.04,-438.26 245.6,-431.41"/>
<polygon fill="#94a3b8" stroke="#94a3b8" points="249.53,-426.85 247.51,-433.68 248.21,-428.38 245.29,-431.77 245.29,-431.77 245.29,-431.77 248.21,-428.38 243.07,-429.86 249.53,-426.85"/>
<text xml:space="preserve" text-anchor="middle" x="315.55" y="-456.45" font-family="Arial" font-size="9.00" fill="#525252">unsupported extension API / direct failure</text>
</g>
<!-- prompt&#45;&gt;winner -->
<g id="edge14" class="edge">
<title>prompt&#45;&gt;winner</title>
<path fill="none" stroke="#94a3b8" d="M289.25,-284.51C257.24,-268.92 210.35,-246.09 176.52,-229.62"/>
<polygon fill="#94a3b8" stroke="#94a3b8" points="171.04,-226.95 178.16,-227.16 172.86,-227.84 176.88,-229.79 176.88,-229.79 176.88,-229.79 172.86,-227.84 175.6,-232.42 171.04,-226.95"/>
</g>
<!-- fallback&#45;&gt;prompt -->
<g id="edge4" class="edge">
<title>fallback&#45;&gt;prompt</title>
<path fill="none" stroke="#94a3b8" d="M278.67,-389.11C287.85,-372.33 301.81,-346.77 312.04,-328.04"/>
<polygon fill="#94a3b8" stroke="#94a3b8" points="315.04,-322.54 314.49,-329.65 314.07,-324.33 311.93,-328.25 311.93,-328.25 311.93,-328.25 314.07,-324.33 309.36,-326.84 315.04,-322.54"/>
<text xml:space="preserve" text-anchor="middle" x="320.98" y="-351.95" font-family="Arial" font-size="9.00" fill="#525252">retry safely</text>
</g>
<!-- lanebundle -->
<g id="node14" class="node">
<title>lanebundle</title>
<path fill="#f5f3ff" stroke="#c4b5fd" stroke-width="1.1" d="M940.22,-1037.5C940.22,-1037.5 740.12,-1037.5 740.12,-1037.5 734.12,-1037.5 728.12,-1031.5 728.12,-1025.5 728.12,-1025.5 728.12,-1013.5 728.12,-1013.5 728.12,-1007.5 734.12,-1001.5 740.12,-1001.5 740.12,-1001.5 940.22,-1001.5 940.22,-1001.5 946.22,-1001.5 952.22,-1007.5 952.22,-1013.5 952.22,-1013.5 952.22,-1025.5 952.22,-1025.5 952.22,-1031.5 946.22,-1037.5 940.22,-1037.5"/>
<text xml:space="preserve" text-anchor="start" x="773.05" y="-1020.55" font-family="Arial" font-size="11.00" fill="#171717">Lane = full extension bundle</text>
<text xml:space="preserve" text-anchor="start" x="738.92" y="-1010.5" font-family="Arial" font-size="10.00" fill="#525252">one or more extension files + prompt/data files</text>
</g>
<!-- lanebundle&#45;&gt;isolate -->
<g id="edge19" class="edge">
<title>lanebundle&#45;&gt;isolate</title>
<path fill="none" stroke="#a78bfa" stroke-dasharray="5,2" d="M878.94,-1001.07C923.63,-978.45 987.52,-936.72 959.17,-893.5 889.06,-786.58 736.78,-745.59 642.53,-730.12"/>
<polygon fill="#a78bfa" stroke="#a78bfa" points="636.2,-729.11 643.08,-727.24 638.21,-729.43 642.62,-730.13 642.62,-730.13 642.62,-730.13 638.21,-729.43 642.16,-733.02 636.2,-729.11"/>
<text xml:space="preserve" text-anchor="middle" x="1015.43" y="-863.95" font-family="Arial" font-size="9.00" fill="#525252">load lane extensions into worktrees</text>
</g>
<!-- lanefeatures -->
<g id="node15" class="node">
<title>lanefeatures</title>
<path fill="#f5f3ff" stroke="#c4b5fd" stroke-width="1.1" d="M927.1,-937.5C927.1,-937.5 753.25,-937.5 753.25,-937.5 747.25,-937.5 741.25,-931.5 741.25,-925.5 741.25,-925.5 741.25,-913.5 741.25,-913.5 741.25,-907.5 747.25,-901.5 753.25,-901.5 753.25,-901.5 927.1,-901.5 927.1,-901.5 933.1,-901.5 939.1,-907.5 939.1,-913.5 939.1,-913.5 939.1,-925.5 939.1,-925.5 939.1,-931.5 933.1,-937.5 927.1,-937.5"/>
<text xml:space="preserve" text-anchor="start" x="782.05" y="-920.55" font-family="Arial" font-size="11.00" fill="#171717">Lane bundle can include</text>
<text xml:space="preserve" text-anchor="start" x="752.05" y="-910.5" font-family="Arial" font-size="10.00" fill="#525252">tools, prompts, hooks, planning behavior</text>
</g>
<!-- lanebundle&#45;&gt;lanefeatures -->
<g id="edge7" class="edge">
<title>lanebundle&#45;&gt;lanefeatures</title>
<path fill="none" stroke="#c4b5fd" d="M840.17,-1000.98C840.17,-983.14 840.17,-955.65 840.17,-937.87"/>
</g>
</g>
</svg>
