<?xml version="1.0" encoding="UTF-8" standalone="no"?>
<!DOCTYPE svg PUBLIC "-//W3C//DTD SVG 1.1//EN"
 "http://www.w3.org/Graphics/SVG/1.1/DTD/svg11.dtd">
<!-- Generated by graphviz version 14.1.4 (20260321.0153)
 -->
<!-- Title: AB_Extension_Flow Pages: 1 -->
<svg width="4574pt" height="1111pt"
 viewBox="0.00 0.00 4574.00 1111.00" xmlns="http://www.w3.org/2000/svg" xmlns:xlink="http://www.w3.org/1999/xlink">
<g id="graph0" class="graph" transform="scale(1 1) rotate(0) translate(4 1107)">
<title>AB_Extension_Flow</title>
<polygon fill="white" stroke="none" points="-4,4 -4,-1107 4570.26,-1107 4570.26,4 -4,4"/>
<g id="clust1" class="cluster">
<title>cluster_edit</title>
<path fill="none" stroke="#93c5fd" d="M1192.66,-608C1192.66,-608 4546.26,-608 4546.26,-608 4552.26,-608 4558.26,-614 4558.26,-620 4558.26,-620 4558.26,-1083 4558.26,-1083 4558.26,-1089 4552.26,-1095 4546.26,-1095 4546.26,-1095 1192.66,-1095 1192.66,-1095 1186.66,-1095 1180.66,-1089 1180.66,-1083 1180.66,-1083 1180.66,-620 1180.66,-620 1180.66,-614 1186.66,-608 1192.66,-608"/>
<text xml:space="preserve" text-anchor="middle" x="2869.46" y="-1077.7" font-family="Helvetica,sans-Serif" font-size="14.00">edit tool flow</text>
</g>
<g id="clust2" class="cluster">
<title>cluster_edit_lanes</title>
<path fill="none" stroke="#86efac" d="M1249.41,-616C1249.41,-616 2851.98,-616 2851.98,-616 2857.98,-616 2863.98,-622 2863.98,-628 2863.98,-628 2863.98,-719 2863.98,-719 2863.98,-725 2857.98,-731 2851.98,-731 2851.98,-731 1249.41,-731 1249.41,-731 1243.41,-731 1237.41,-725 1237.41,-719 1237.41,-719 1237.41,-628 1237.41,-628 1237.41,-622 1243.41,-616 1249.41,-616"/>
<text xml:space="preserve" text-anchor="middle" x="2050.69" y="-713.7" font-family="Helvetica,sans-Serif" font-size="14.00">Per&#45;lane fixed_args execution (edit)</text>
</g>
<g id="clust3" class="cluster">
<title>cluster_nonedit</title>
<path fill="none" stroke="#fca5a5" d="M1175.99,-8C1175.99,-8 4543.33,-8 4543.33,-8 4549.33,-8 4555.33,-14 4555.33,-20 4555.33,-20 4555.33,-306 4555.33,-306 4555.33,-312 4549.33,-318 4543.33,-318 4543.33,-318 1175.99,-318 1175.99,-318 1169.99,-318 1163.99,-312 1163.99,-306 1163.99,-306 1163.99,-20 1163.99,-20 1163.99,-14 1169.99,-8 1175.99,-8"/>
<text xml:space="preserve" text-anchor="middle" x="2859.66" y="-300.7" font-family="Helvetica,sans-Serif" font-size="14.00">non&#45;edit fixed_args flow</text>
</g>
<g id="clust4" class="cluster">
<title>cluster_fixed_lanes</title>
<path fill="none" stroke="#fca5a5" d="M1249.41,-16C1249.41,-16 2838.72,-16 2838.72,-16 2844.72,-16 2850.72,-22 2850.72,-28 2850.72,-28 2850.72,-119 2850.72,-119 2850.72,-125 2844.72,-131 2838.72,-131 2838.72,-131 1249.41,-131 1249.41,-131 1243.41,-131 1237.41,-125 1237.41,-119 1237.41,-119 1237.41,-28 1237.41,-28 1237.41,-22 1243.41,-16 1249.41,-16"/>
<text xml:space="preserve" text-anchor="middle" x="2044.06" y="-113.7" font-family="Helvetica,sans-Serif" font-size="14.00">Per&#45;lane fixed_args execution</text>
</g>
<g id="clust5" class="cluster">
<title>cluster_proxy</title>
<path fill="none" stroke="#93c5fd" d="M1623.53,-393C1623.53,-393 4121.94,-393 4121.94,-393 4127.94,-393 4133.94,-399 4133.94,-405 4133.94,-405 4133.94,-588 4133.94,-588 4133.94,-594 4127.94,-600 4121.94,-600 4121.94,-600 1623.53,-600 1623.53,-600 1617.53,-600 1611.53,-594 1611.53,-588 1611.53,-588 1611.53,-405 1611.53,-405 1611.53,-399 1617.53,-393 1623.53,-393"/>
<text xml:space="preserve" text-anchor="middle" x="2872.73" y="-582.7" font-family="Helvetica,sans-Serif" font-size="14.00">proxy replan flow (single/multi call)</text>
</g>
<!-- Start -->
<g id="node1" class="node">
<title>Start</title>
<ellipse fill="#eef2ff" stroke="#64748b" stroke-width="1.1" cx="84.01" cy="-475" rx="84.01" ry="18"/>
<text xml:space="preserve" text-anchor="middle" x="84.01" y="-469.2" font-family="Helvetica,sans-Serif" font-size="14.00">Tool/command call</text>
</g>
<!-- Load -->
<g id="node2" class="node">
<title>Load</title>
<ellipse fill="#e0f2fe" stroke="#64748b" stroke-width="1.1" cx="350.79" cy="-475" rx="141.77" ry="37.48"/>
<text xml:space="preserve" text-anchor="middle" x="350.79" y="-484.2" font-family="Helvetica,sans-Serif" font-size="14.00">Extension/session start</text>
<text xml:space="preserve" text-anchor="middle" x="350.79" y="-469.2" font-family="Helvetica,sans-Serif" font-size="14.00">Load experiments from:</text>
<text xml:space="preserve" text-anchor="middle" x="350.79" y="-454.2" font-family="Helvetica,sans-Serif" font-size="14.00">global + project + package dirs</text>
</g>
<!-- Start&#45;&gt;Load -->
<g id="edge43" class="edge">
<title>Start&#45;&gt;Load</title>
<path fill="none" stroke="#334155" d="M168.42,-475C168.42,-475 197.39,-475 197.39,-475"/>
<polygon fill="#334155" stroke="#334155" points="197.39,-478.5 207.39,-475 197.39,-471.5 197.39,-478.5"/>
</g>
<!-- Register -->
<g id="node3" class="node">
<title>Register</title>
<ellipse fill="#dbeafe" stroke="#64748b" stroke-width="1.1" cx="649.88" cy="-475" rx="116.32" ry="48.08"/>
<text xml:space="preserve" text-anchor="middle" x="649.88" y="-491.7" font-family="Helvetica,sans-Serif" font-size="14.00">Register interceptors</text>
<text xml:space="preserve" text-anchor="middle" x="649.88" y="-476.7" font-family="Helvetica,sans-Serif" font-size="14.00">&#45; edit wrapper</text>
<text xml:space="preserve" text-anchor="middle" x="649.88" y="-461.7" font-family="Helvetica,sans-Serif" font-size="14.00">&#45; fixed_args tool wrapper</text>
<text xml:space="preserve" text-anchor="middle" x="649.88" y="-446.7" font-family="Helvetica,sans-Serif" font-size="14.00">&#45; proxy (single/multi)</text>
</g>
<!-- Load&#45;&gt;Register -->
<g id="edge44" class="edge">
<title>Load&#45;&gt;Register</title>
<path fill="none" stroke="#334155" d="M492.89,-475C492.89,-475 521.87,-475 521.87,-475"/>
<polygon fill="#334155" stroke="#334155" points="521.87,-478.5 531.87,-475 521.87,-471.5 521.87,-478.5"/>
</g>
<!-- Dispatch -->
<g id="node4" class="node">
<title>Dispatch</title>
<path fill="#ffedd5" stroke="#64748b" stroke-width="1.1" d="M925.83,-491.36C925.83,-491.36 819.09,-476.64 819.09,-476.64 813.14,-475.82 813.14,-474.18 819.09,-473.36 819.09,-473.36 925.83,-458.64 925.83,-458.64 931.77,-457.82 943.66,-457.82 949.61,-458.64 949.61,-458.64 1056.35,-473.36 1056.35,-473.36 1062.29,-474.18 1062.29,-475.82 1056.35,-476.64 1056.35,-476.64 949.61,-491.36 949.61,-491.36 943.66,-492.18 931.77,-492.18 925.83,-491.36"/>
<text xml:space="preserve" text-anchor="middle" x="937.72" y="-469.2" font-family="Helvetica,sans-Serif" font-size="14.00">Dispatch by tool path</text>
</g>
<!-- Register&#45;&gt;Dispatch -->
<g id="edge45" class="edge">
<title>Register&#45;&gt;Dispatch</title>
<path fill="none" stroke="#334155" d="M766.54,-475C766.54,-475 791.94,-475 791.94,-475"/>
<polygon fill="#334155" stroke="#334155" points="791.94,-478.5 801.94,-475 791.94,-471.5 791.94,-478.5"/>
</g>
<!-- SelectEdit -->
<g id="node5" class="node">
<title>SelectEdit</title>
<ellipse fill="#f8fafc" stroke="#64748b" stroke-width="1.1" cx="1362.26" cy="-766" rx="173.59" ry="26.87"/>
<text xml:space="preserve" text-anchor="middle" x="1362.26" y="-767.7" font-family="Helvetica,sans-Serif" font-size="14.00">selectExperimentForEdit</text>
<text xml:space="preserve" text-anchor="middle" x="1362.26" y="-752.7" font-family="Helvetica,sans-Serif" font-size="14.00">(check sample/path/oldText/cooldown)</text>
</g>
<!-- Dispatch&#45;&gt;SelectEdit -->
<g id="edge46" class="edge">
<title>Dispatch&#45;&gt;SelectEdit</title>
<path fill="none" stroke="#334155" d="M1006.82,-484C1089.6,-484 1217.26,-484 1217.26,-484 1217.26,-484 1217.26,-739.32 1217.26,-739.32"/>
<polygon fill="#334155" stroke="#334155" points="1213.76,-739.32 1217.26,-749.32 1220.76,-739.32 1213.76,-739.32"/>
<text xml:space="preserve" text-anchor="middle" x="1120.11" y="-661.75" font-family="Helvetica,sans-Serif" font-size="10.00">tool = edit</text>
</g>
<!-- SelectFixed -->
<g id="node21" class="node">
<title>SelectFixed</title>
<ellipse fill="#f8fafc" stroke="#64748b" stroke-width="1.1" cx="1362.26" cy="-260" rx="190.27" ry="18"/>
<text xml:space="preserve" text-anchor="middle" x="1362.26" y="-254.2" font-family="Helvetica,sans-Serif" font-size="14.00">selectExperimentForTool(strategy=fixed_args)</text>
</g>
<!-- Dispatch&#45;&gt;SelectFixed -->
<g id="edge47" class="edge">
<title>Dispatch&#45;&gt;SelectFixed</title>
<path fill="none" stroke="#334155" d="M1006.9,-466C1078.58,-466 1180.26,-466 1180.26,-466 1180.26,-466 1180.26,-277.02 1180.26,-277.02"/>
<polygon fill="#334155" stroke="#334155" points="1183.76,-277.02 1180.26,-267.02 1176.76,-277.02 1183.76,-277.02"/>
<text xml:space="preserve" text-anchor="middle" x="1120.11" y="-357.75" font-family="Helvetica,sans-Serif" font-size="10.00">fixed_args tool</text>
</g>
<!-- SelectProxy -->
<g id="node34" class="node">
<title>SelectProxy</title>
<ellipse fill="#f8fafc" stroke="#64748b" stroke-width="1.1" cx="1831.74" cy="-475" rx="212.21" ry="18"/>
<text xml:space="preserve" text-anchor="middle" x="1831.74" y="-469.2" font-family="Helvetica,sans-Serif" font-size="14.00">selectExperimentForTool(strategy=lane_single_call)</text>
</g>
<!-- Dispatch&#45;&gt;SelectProxy -->
<g id="edge48" class="edge">
<title>Dispatch&#45;&gt;SelectProxy</title>
<path fill="none" stroke="#334155" d="M1072.05,-475C1072.05,-475 1607.86,-475 1607.86,-475"/>
<polygon fill="#334155" stroke="#334155" points="1607.86,-478.5 1617.86,-475 1607.86,-471.5 1607.86,-478.5"/>
<text xml:space="preserve" text-anchor="middle" x="1362.26" y="-476.75" font-family="Helvetica,sans-Serif" font-size="10.00">lane_single/multi tool</text>
</g>
<!-- NativeEdit -->
<g id="node6" class="node">
<title>NativeEdit</title>
<ellipse fill="#dcfce7" stroke="#64748b" stroke-width="1.1" cx="1831.74" cy="-757" rx="132.75" ry="18"/>
<text xml:space="preserve" text-anchor="middle" x="1831.74" y="-751.2" font-family="Helvetica,sans-Serif" font-size="14.00">Native edit tool (no experiment)</text>
</g>
<!-- SelectEdit&#45;&gt;NativeEdit -->
<g id="edge4" class="edge">
<title>SelectEdit&#45;&gt;NativeEdit</title>
<path fill="none" stroke="#334155" d="M1526.79,-757.06C1526.79,-757.06 1687.29,-757.06 1687.29,-757.06"/>
<polygon fill="#334155" stroke="#334155" points="1687.29,-760.57 1697.29,-757.06 1687.29,-753.57 1687.29,-760.57"/>
</g>
<!-- StartEdit -->
<g id="node7" class="node">
<title>StartEdit</title>
<ellipse fill="#f8fafc" stroke="#64748b" stroke-width="1.1" cx="1831.74" cy="-842" rx="133.29" ry="26.87"/>
<text xml:space="preserve" text-anchor="middle" x="1831.74" y="-843.7" font-family="Helvetica,sans-Serif" font-size="14.00">createRunContext + run.json</text>
<text xml:space="preserve" text-anchor="middle" x="1831.74" y="-828.7" font-family="Helvetica,sans-Serif" font-size="14.00">stage=started</text>
</g>
<!-- SelectEdit&#45;&gt;StartEdit -->
<g id="edge5" class="edge">
<title>SelectEdit&#45;&gt;StartEdit</title>
<path fill="none" stroke="#334155" d="M1506.16,-781.44C1644.02,-781.44 1831.26,-781.44 1831.26,-781.44 1831.26,-781.44 1831.26,-803.39 1831.26,-803.39"/>
<polygon fill="#334155" stroke="#334155" points="1827.76,-803.39 1831.26,-813.39 1834.76,-803.39 1827.76,-803.39"/>
<text xml:space="preserve" text-anchor="middle" x="1586.03" y="-827.75" font-family="Helvetica,sans-Serif" font-size="10.00">match</text>
</g>
<!-- EditReturn -->
<g id="node20" class="node">
<title>EditReturn</title>
<ellipse fill="#f8fafc" stroke="#64748b" stroke-width="1.1" cx="4436.52" cy="-761" rx="113.74" ry="18"/>
<text xml:space="preserve" text-anchor="middle" x="4436.52" y="-755.2" font-family="Helvetica,sans-Serif" font-size="14.00">Return winner output + diff</text>
</g>
<!-- NativeEdit&#45;&gt;EditReturn -->
<g id="edge20" class="edge">
<title>NativeEdit&#45;&gt;EditReturn</title>
<path fill="none" stroke="#334155" stroke-dasharray="1,5" d="M1831.26,-738.9C1831.26,-728.34 1831.26,-717.06 1831.26,-717.06 1831.26,-717.06 4399.26,-717.06 4399.26,-717.06 4399.26,-717.06 4399.26,-732.12 4399.26,-732.12"/>
<polygon fill="#334155" stroke="#334155" points="4395.76,-732.12 4399.26,-742.12 4402.76,-732.12 4395.76,-732.12"/>
</g>
<!-- RunLanesEdit -->
<g id="node8" class="node">
<title>RunLanesEdit</title>
<ellipse fill="#f8fafc" stroke="#64748b" stroke-width="1.1" cx="2360.94" cy="-825" rx="125.87" ry="26.87"/>
<text xml:space="preserve" text-anchor="middle" x="2360.94" y="-826.7" font-family="Helvetica,sans-Serif" font-size="14.00">runExperimentLanes</text>
<text xml:space="preserve" text-anchor="middle" x="2360.94" y="-811.7" font-family="Helvetica,sans-Serif" font-size="14.00">per&#45;lane isolated worktrees</text>
</g>
<!-- StartEdit&#45;&gt;RunLanesEdit -->
<g id="edge6" class="edge">
<title>StartEdit&#45;&gt;RunLanesEdit</title>
<path fill="none" stroke="#334155" d="M1958.83,-833.5C1958.83,-833.5 2229.31,-833.5 2229.31,-833.5"/>
<polygon fill="#334155" stroke="#334155" points="2229.31,-837 2239.31,-833.5 2229.31,-830 2229.31,-837"/>
</g>
<!-- EditRecords -->
<g id="node13" class="node">
<title>EditRecords</title>
<ellipse fill="#f8fafc" stroke="#64748b" stroke-width="1.1" cx="2747.61" cy="-815" rx="166.17" ry="26.87"/>
<text xml:space="preserve" text-anchor="middle" x="2747.61" y="-816.7" font-family="Helvetica,sans-Serif" font-size="14.00">writeLaneRecords() + lane artifacts</text>
<text xml:space="preserve" text-anchor="middle" x="2747.61" y="-801.7" font-family="Helvetica,sans-Serif" font-size="14.00">(lane.json, target&#45;before/after, patch)</text>
</g>
<!-- RunLanesEdit&#45;&gt;EditRecords -->
<g id="edge7" class="edge">
<title>RunLanesEdit&#45;&gt;EditRecords</title>
<path fill="none" stroke="#334155" d="M2485.15,-820C2485.15,-820 2572.48,-820 2572.48,-820"/>
<polygon fill="#334155" stroke="#334155" points="2572.48,-823.5 2582.48,-820 2572.48,-816.5 2572.48,-823.5"/>
</g>
<!-- EditWt -->
<g id="node9" class="node">
<title>EditWt</title>
<ellipse fill="#f8fafc" stroke="#64748b" stroke-width="1.1" cx="1362.26" cy="-662" rx="116.85" ry="26.87"/>
<text xml:space="preserve" text-anchor="middle" x="1362.26" y="-663.7" font-family="Helvetica,sans-Serif" font-size="14.00">git worktree add &#45;&#45;detach</text>
<text xml:space="preserve" text-anchor="middle" x="1362.26" y="-648.7" font-family="Helvetica,sans-Serif" font-size="14.00">sync target file</text>
</g>
<!-- EditPrompt -->
<g id="node10" class="node">
<title>EditPrompt</title>
<ellipse fill="#f8fafc" stroke="#64748b" stroke-width="1.1" cx="1831.74" cy="-662" rx="166.87" ry="18"/>
<text xml:space="preserve" text-anchor="middle" x="1831.74" y="-656.2" font-family="Helvetica,sans-Serif" font-size="14.00">generate lane&#45;prompt for exact edit args</text>
</g>
<!-- EditWt&#45;&gt;EditPrompt -->
<g id="edge1" class="edge">
<title>EditWt&#45;&gt;EditPrompt</title>
<path fill="none" stroke="#334155" d="M1479.52,-662C1479.52,-662 1653.13,-662 1653.13,-662"/>
<polygon fill="#334155" stroke="#334155" points="1653.13,-665.5 1663.13,-662 1653.13,-658.5 1653.13,-665.5"/>
</g>
<!-- EditHarness -->
<g id="node11" class="node">
<title>EditHarness</title>
<path fill="#fef08a" stroke="#64748b" stroke-width="1.1" d="M2349.2,-697.51C2349.2,-697.51 2193.18,-664.49 2193.18,-664.49 2187.31,-663.24 2187.31,-660.76 2193.18,-659.51 2193.18,-659.51 2349.2,-626.49 2349.2,-626.49 2355.07,-625.24 2366.81,-625.24 2372.68,-626.49 2372.68,-626.49 2528.7,-659.51 2528.7,-659.51 2534.57,-660.76 2534.57,-663.24 2528.7,-664.49 2528.7,-664.49 2372.68,-697.51 2372.68,-697.51 2366.81,-698.76 2355.07,-698.76 2349.2,-697.51"/>
<text xml:space="preserve" text-anchor="middle" x="2360.94" y="-663.7" font-family="Helvetica,sans-Serif" font-size="14.00">Lane harness</text>
<text xml:space="preserve" text-anchor="middle" x="2360.94" y="-648.7" font-family="Helvetica,sans-Serif" font-size="14.00">direct &#45;&gt; pi_prompt fallback</text>
</g>
<!-- EditPrompt&#45;&gt;EditHarness -->
<g id="edge2" class="edge">
<title>EditPrompt&#45;&gt;EditHarness</title>
<path fill="none" stroke="#334155" d="M1998.82,-662C1998.82,-662 2167.72,-662 2167.72,-662"/>
<polygon fill="#334155" stroke="#334155" points="2167.72,-665.5 2177.72,-662 2167.72,-658.5 2167.72,-665.5"/>
</g>
<!-- EditRun -->
<g id="node12" class="node">
<title>EditRun</title>
<ellipse fill="#f8fafc" stroke="#64748b" stroke-width="1.1" cx="2747.61" cy="-662" rx="108.36" ry="37.48"/>
<text xml:space="preserve" text-anchor="middle" x="2747.61" y="-671.2" font-family="Helvetica,sans-Serif" font-size="14.00">run lane in worktree</text>
<text xml:space="preserve" text-anchor="middle" x="2747.61" y="-656.2" font-family="Helvetica,sans-Serif" font-size="14.00">collect tool transcript</text>
<text xml:space="preserve" text-anchor="middle" x="2747.61" y="-641.2" font-family="Helvetica,sans-Serif" font-size="14.00">patch from before/after</text>
</g>
<!-- EditHarness&#45;&gt;EditRun -->
<g id="edge3" class="edge">
<title>EditHarness&#45;&gt;EditRun</title>
<path fill="none" stroke="#334155" d="M2542.95,-662C2542.95,-662 2627.38,-662 2627.38,-662"/>
<polygon fill="#334155" stroke="#334155" points="2627.38,-665.5 2637.38,-662 2627.38,-658.5 2627.38,-665.5"/>
</g>
<!-- EditManifest -->
<g id="node14" class="node">
<title>EditManifest</title>
<ellipse fill="#f8fafc" stroke="#64748b" stroke-width="1.1" cx="4009.28" cy="-676" rx="158.59" ry="18"/>
<text xml:space="preserve" text-anchor="middle" x="4009.28" y="-670.2" font-family="Helvetica,sans-Serif" font-size="14.00">run.json update: lane failures, fairness</text>
</g>
<!-- EditRecords&#45;&gt;EditManifest -->
<g id="edge8" class="edge">
<title>EditRecords&#45;&gt;EditManifest</title>
<path fill="none" stroke="#334155" d="M2850.31,-793.46C3127.69,-793.46 3871.26,-793.46 3871.26,-793.46 3871.26,-793.46 3871.26,-696.73 3871.26,-696.73"/>
<polygon fill="#334155" stroke="#334155" points="3874.76,-696.73 3871.26,-686.73 3867.76,-696.73 3874.76,-696.73"/>
</g>
<!-- EditGrade -->
<g id="node15" class="node">
<title>EditGrade</title>
<ellipse fill="#f8fafc" stroke="#64748b" stroke-width="1.1" cx="3136.28" cy="-823" rx="139.12" ry="26.87"/>
<text xml:space="preserve" text-anchor="middle" x="3136.28" y="-824.7" font-family="Helvetica,sans-Serif" font-size="14.00">selectWinner</text>
<text xml:space="preserve" text-anchor="middle" x="3136.28" y="-809.7" font-family="Helvetica,sans-Serif" font-size="14.00">(hardcoded/formula/llm/blend)</text>
</g>
<!-- EditRecords&#45;&gt;EditGrade -->
<g id="edge9" class="edge">
<title>EditRecords&#45;&gt;EditGrade</title>
<path fill="none" stroke="#334155" d="M2912.44,-819C2912.44,-819 2986.65,-819 2986.65,-819"/>
<polygon fill="#334155" stroke="#334155" points="2986.65,-822.5 2996.65,-819 2986.65,-815.5 2986.65,-822.5"/>
</g>
<!-- Artifacts -->
<g id="node41" class="node">
<title>Artifacts</title>
<polygon fill="#f8fafc" stroke="#94a3b8" stroke-width="1.1" points="4201.78,-385 4198.78,-389 4177.78,-389 4174.78,-385 3816.78,-385 3816.78,-347 4201.78,-347 4201.78,-385"/>
<text xml:space="preserve" text-anchor="middle" x="4009.28" y="-367.7" font-family="Helvetica,sans-Serif" font-size="14.00">Artifacts on disk under ~/.pi/agent/ab/runs/&lt;project&gt;/&lt;run&#45;id&gt;/</text>
<text xml:space="preserve" text-anchor="middle" x="4009.28" y="-352.7" font-family="Helvetica,sans-Serif" font-size="14.00">run.json, lanes/&lt;lane&gt;.json, sessions/, artifacts/</text>
</g>
<!-- EditRecords&#45;&gt;Artifacts -->
<g id="edge51" class="edge">
<title>EditRecords&#45;&gt;Artifacts</title>
<path fill="none" stroke="#334155" stroke-dasharray="5,2" d="M2825.9,-790.8C3076.43,-790.8 3842.26,-790.8 3842.26,-790.8 3842.26,-790.8 3842.26,-396.87 3842.26,-396.87"/>
<polygon fill="#334155" stroke="#334155" points="3845.76,-396.87 3842.26,-386.87 3838.76,-396.87 3845.76,-396.87"/>
<text xml:space="preserve" text-anchor="middle" x="3365.9" y="-649.75" font-family="Helvetica,sans-Serif" font-size="10.00">lane artifacts</text>
</g>
<!-- EditManifest&#45;&gt;EditReturn -->
<g id="edge19" class="edge">
<title>EditManifest&#45;&gt;EditReturn</title>
<path fill="none" stroke="#334155" stroke-dasharray="1,5" d="M4148.26,-684.78C4148.26,-706.49 4148.26,-761 4148.26,-761 4148.26,-761 4311.07,-761 4311.07,-761"/>
<polygon fill="#334155" stroke="#334155" points="4311.07,-764.5 4321.07,-761 4311.07,-757.5 4311.07,-764.5"/>
<text xml:space="preserve" text-anchor="middle" x="4262.28" y="-691.75" font-family="Helvetica,sans-Serif" font-size="10.00">final completion</text>
</g>
<!-- EditManifest&#45;&gt;Artifacts -->
<g id="edge49" class="edge">
<title>EditManifest&#45;&gt;Artifacts</title>
<path fill="none" stroke="#334155" d="M4147.26,-667.06C4147.26,-667.06 4147.26,-396.98 4147.26,-396.98"/>
<polygon fill="#334155" stroke="#334155" points="4150.76,-396.98 4147.26,-386.98 4143.76,-396.98 4150.76,-396.98"/>
</g>
<!-- EditGrading -->
<g id="node16" class="node">
<title>EditGrading</title>
<ellipse fill="#f8fafc" stroke="#64748b" stroke-width="1.1" cx="3564.28" cy="-823" rx="149.2" ry="26.87"/>
<text xml:space="preserve" text-anchor="middle" x="3564.28" y="-824.7" font-family="Helvetica,sans-Serif" font-size="14.00">runGradingProcess (if llm/blend)</text>
<text xml:space="preserve" text-anchor="middle" x="3564.28" y="-809.7" font-family="Helvetica,sans-Serif" font-size="14.00">write grading&#45;input/output/raw</text>
</g>
<!-- EditGrade&#45;&gt;EditGrading -->
<g id="edge10" class="edge">
<title>EditGrade&#45;&gt;EditGrading</title>
<path fill="none" stroke="#334155" d="M3275.83,-823C3275.83,-823 3403.08,-823 3403.08,-823"/>
<polygon fill="#334155" stroke="#334155" points="3403.08,-826.5 3413.08,-823 3403.08,-819.5 3403.08,-826.5"/>
<text xml:space="preserve" text-anchor="middle" x="3365.9" y="-824.75" font-family="Helvetica,sans-Serif" font-size="10.00">llm / blend</text>
</g>
<!-- EditApply -->
<g id="node17" class="node">
<title>EditApply</title>
<path fill="#fef08a" stroke="#64748b" stroke-width="1.1" d="M3552.64,-963.06C3552.64,-963.06 3425.66,-930.94 3425.66,-930.94 3419.84,-929.47 3419.84,-926.53 3425.66,-925.06 3425.66,-925.06 3552.64,-892.94 3552.64,-892.94 3558.46,-891.47 3570.09,-891.47 3575.91,-892.94 3575.91,-892.94 3702.89,-925.06 3702.89,-925.06 3708.71,-926.53 3708.71,-929.47 3702.89,-930.94 3702.89,-930.94 3575.91,-963.06 3575.91,-963.06 3570.09,-964.53 3558.46,-964.53 3552.64,-963.06"/>
<text xml:space="preserve" text-anchor="middle" x="3564.28" y="-929.7" font-family="Helvetica,sans-Serif" font-size="14.00">applyPatchToMain</text>
<text xml:space="preserve" text-anchor="middle" x="3564.28" y="-914.7" font-family="Helvetica,sans-Serif" font-size="14.00">try &#45;&#45;apply then &#45;&#45;3way</text>
</g>
<!-- EditGrade&#45;&gt;EditApply -->
<g id="edge12" class="edge">
<title>EditGrade&#45;&gt;EditApply</title>
<path fill="none" stroke="#334155" d="M3136.26,-850.31C3136.26,-881.42 3136.26,-928 3136.26,-928 3136.26,-928 3400.35,-928 3400.35,-928"/>
<polygon fill="#334155" stroke="#334155" points="3400.35,-931.5 3410.35,-928 3400.35,-924.5 3400.35,-931.5"/>
</g>
<!-- EditGrading&#45;&gt;EditManifest -->
<g id="edge11" class="edge">
<title>EditGrading&#45;&gt;EditManifest</title>
<path fill="none" stroke="#334155" d="M3707.26,-815.1C3707.26,-784.56 3707.26,-676 3707.26,-676 3707.26,-676 3838.79,-676 3838.79,-676"/>
<polygon fill="#334155" stroke="#334155" points="3838.79,-679.5 3848.79,-676 3838.79,-672.5 3838.79,-679.5"/>
</g>
<!-- EditGrading&#45;&gt;Artifacts -->
<g id="edge54" class="edge">
<title>EditGrading&#45;&gt;Artifacts</title>
<path fill="none" stroke="#334155" d="M3701.26,-812.15C3701.26,-742.95 3701.26,-366 3701.26,-366 3701.26,-366 3804.87,-366 3804.87,-366"/>
<polygon fill="#334155" stroke="#334155" points="3804.87,-369.5 3814.87,-366 3804.87,-362.5 3804.87,-369.5"/>
</g>
<!-- BaselineApply -->
<g id="node18" class="node">
<title>BaselineApply</title>
<ellipse fill="#fee2e2" stroke="#64748b" stroke-width="1.1" cx="4009.28" cy="-761" rx="118.44" ry="26.87"/>
<text xml:space="preserve" text-anchor="middle" x="4009.28" y="-762.7" font-family="Helvetica,sans-Serif" font-size="14.00">fallback to baseline patch</text>
<text xml:space="preserve" text-anchor="middle" x="4009.28" y="-747.7" font-family="Helvetica,sans-Serif" font-size="14.00">(on apply failure if policy)</text>
</g>
<!-- EditApply&#45;&gt;BaselineApply -->
<g id="edge14" class="edge">
<title>EditApply&#45;&gt;BaselineApply</title>
<path fill="none" stroke="#334155" d="M3626.53,-905.2C3722.41,-905.2 3895.26,-905.2 3895.26,-905.2 3895.26,-905.2 3895.26,-780.27 3895.26,-780.27"/>
<polygon fill="#334155" stroke="#334155" points="3898.76,-780.27 3895.26,-770.27 3891.76,-780.27 3898.76,-780.27"/>
<text xml:space="preserve" text-anchor="middle" x="3765.65" y="-871.75" font-family="Helvetica,sans-Serif" font-size="10.00">apply failed</text>
</g>
<!-- NativeFallback -->
<g id="node19" class="node">
<title>NativeFallback</title>
<ellipse fill="#dcfce7" stroke="#64748b" stroke-width="1.1" cx="4009.28" cy="-855" rx="110.49" ry="26.87"/>
<text xml:space="preserve" text-anchor="middle" x="4009.28" y="-856.7" font-family="Helvetica,sans-Serif" font-size="14.00">native edit fallback</text>
<text xml:space="preserve" text-anchor="middle" x="4009.28" y="-841.7" font-family="Helvetica,sans-Serif" font-size="14.00">(all_lanes_failed policy)</text>
</g>
<!-- EditApply&#45;&gt;NativeFallback -->
<g id="edge16" class="edge">
<title>EditApply&#45;&gt;NativeFallback</title>
<path fill="none" stroke="#334155" d="M3686.46,-920.4C3818.19,-920.4 4009.26,-920.4 4009.26,-920.4 4009.26,-920.4 4009.26,-893.87 4009.26,-893.87"/>
<polygon fill="#334155" stroke="#334155" points="4012.76,-893.87 4009.26,-883.87 4005.76,-893.87 4012.76,-893.87"/>
<text xml:space="preserve" text-anchor="middle" x="3765.65" y="-928.75" font-family="Helvetica,sans-Serif" font-size="10.00">fallback policy</text>
</g>
<!-- EditApply&#45;&gt;EditReturn -->
<g id="edge13" class="edge">
<title>EditApply&#45;&gt;EditReturn</title>
<path fill="none" stroke="#334155" d="M3686.44,-935.6C3926.42,-935.6 4436.26,-935.6 4436.26,-935.6 4436.26,-935.6 4436.26,-790.87 4436.26,-790.87"/>
<polygon fill="#334155" stroke="#334155" points="4439.76,-790.87 4436.26,-780.87 4432.76,-790.87 4439.76,-790.87"/>
<text xml:space="preserve" text-anchor="middle" x="4009.28" y="-963.75" font-family="Helvetica,sans-Serif" font-size="10.00">apply success</text>
</g>
<!-- EditApply&#45;&gt;EditReturn -->
<g id="edge18" class="edge">
<title>EditApply&#45;&gt;EditReturn</title>
<path fill="none" stroke="#065f46" d="M3626.31,-950.8C3834.2,-950.8 4493.26,-950.8 4493.26,-950.8 4493.26,-950.8 4493.26,-788.37 4493.26,-788.37"/>
<polygon fill="#065f46" stroke="#065f46" points="4496.76,-788.37 4493.26,-778.37 4489.76,-788.37 4496.76,-788.37"/>
<text xml:space="preserve" text-anchor="middle" x="4009.28" y="-1054.75" font-family="Helvetica,sans-Serif" font-size="10.00">no fallback policy</text>
</g>
<!-- BaselineApply&#45;&gt;EditReturn -->
<g id="edge15" class="edge">
<title>BaselineApply&#45;&gt;EditReturn</title>
<path fill="none" stroke="#334155" d="M4121.53,-770C4121.53,-770 4325.15,-770 4325.15,-770"/>
<polygon fill="#334155" stroke="#334155" points="4325.15,-773.5 4335.15,-770 4325.15,-766.5 4325.15,-773.5"/>
<text xml:space="preserve" text-anchor="middle" x="4262.28" y="-762.75" font-family="Helvetica,sans-Serif" font-size="10.00">baseline succeeds</text>
</g>
<!-- NativeFallback&#45;&gt;EditReturn -->
<g id="edge17" class="edge">
<title>NativeFallback&#45;&gt;EditReturn</title>
<path fill="none" stroke="#334155" d="M4120.28,-855C4229.26,-855 4379.26,-855 4379.26,-855 4379.26,-855 4379.26,-788.46 4379.26,-788.46"/>
<polygon fill="#334155" stroke="#334155" points="4382.76,-788.46 4379.26,-778.46 4375.76,-788.46 4382.76,-788.46"/>
<text xml:space="preserve" text-anchor="middle" x="4262.28" y="-837.75" font-family="Helvetica,sans-Serif" font-size="10.00">native succeeds</text>
</g>
<!-- NativeFixed -->
<g id="node22" class="node">
<title>NativeFixed</title>
<ellipse fill="#dcfce7" stroke="#64748b" stroke-width="1.1" cx="1831.74" cy="-166" rx="106.24" ry="26.87"/>
<text xml:space="preserve" text-anchor="middle" x="1831.74" y="-167.7" font-family="Helvetica,sans-Serif" font-size="14.00">Native delegate tool</text>
<text xml:space="preserve" text-anchor="middle" x="1831.74" y="-152.7" font-family="Helvetica,sans-Serif" font-size="14.00">(no active experiment)</text>
</g>
<!-- SelectFixed&#45;&gt;NativeFixed -->
<g id="edge24" class="edge">
<title>SelectFixed&#45;&gt;NativeFixed</title>
<path fill="none" stroke="#334155" d="M1516.26,-249.22C1516.26,-224.53 1516.26,-166 1516.26,-166 1516.26,-166 1713.85,-166 1713.85,-166"/>
<polygon fill="#334155" stroke="#334155" points="1713.85,-169.5 1723.85,-166 1713.85,-162.5 1713.85,-169.5"/>
</g>
<!-- StartFixed -->
<g id="node23" class="node">
<title>StartFixed</title>
<ellipse fill="#f8fafc" stroke="#64748b" stroke-width="1.1" cx="1831.74" cy="-260" rx="133.29" ry="26.87"/>
<text xml:space="preserve" text-anchor="middle" x="1831.74" y="-261.7" font-family="Helvetica,sans-Serif" font-size="14.00">createRunContext + run.json</text>
<text xml:space="preserve" text-anchor="middle" x="1831.74" y="-246.7" font-family="Helvetica,sans-Serif" font-size="14.00">stage=started</text>
</g>
<!-- SelectFixed&#45;&gt;StartFixed -->
<g id="edge25" class="edge">
<title>SelectFixed&#45;&gt;StartFixed</title>
<path fill="none" stroke="#334155" d="M1552.88,-260C1552.88,-260 1686.4,-260 1686.4,-260"/>
<polygon fill="#334155" stroke="#334155" points="1686.4,-263.5 1696.4,-260 1686.4,-256.5 1686.4,-263.5"/>
<text xml:space="preserve" text-anchor="middle" x="1586.03" y="-261.75" font-family="Helvetica,sans-Serif" font-size="10.00">match</text>
</g>
<!-- FixedReturn -->
<g id="node33" class="node">
<title>FixedReturn</title>
<ellipse fill="#f8fafc" stroke="#64748b" stroke-width="1.1" cx="4436.52" cy="-190" rx="110.82" ry="18"/>
<text xml:space="preserve" text-anchor="middle" x="4436.52" y="-184.2" font-family="Helvetica,sans-Serif" font-size="14.00">Return winner output_text</text>
</g>
<!-- NativeFixed&#45;&gt;FixedReturn -->
<g id="edge34" class="edge">
<title>NativeFixed&#45;&gt;FixedReturn</title>
<path fill="none" stroke="#334155" stroke-dasharray="1,5" d="M1919.52,-181.56C1919.52,-181.56 4325.86,-181.56 4325.86,-181.56"/>
<polygon fill="#334155" stroke="#334155" points="4325.86,-185.07 4335.86,-181.56 4325.86,-178.07 4325.86,-185.07"/>
</g>
<!-- RunLanesFixed -->
<g id="node24" class="node">
<title>RunLanesFixed</title>
<ellipse fill="#f8fafc" stroke="#64748b" stroke-width="1.1" cx="2360.94" cy="-260" rx="160.34" ry="26.87"/>
<text xml:space="preserve" text-anchor="middle" x="2360.94" y="-261.7" font-family="Helvetica,sans-Serif" font-size="14.00">runExperimentLanesFixedArgsTool</text>
<text xml:space="preserve" text-anchor="middle" x="2360.94" y="-246.7" font-family="Helvetica,sans-Serif" font-size="14.00">per&#45;lane isolated worktrees</text>
</g>
<!-- StartFixed&#45;&gt;RunLanesFixed -->
<g id="edge26" class="edge">
<title>StartFixed&#45;&gt;RunLanesFixed</title>
<path fill="none" stroke="#334155" d="M1965.28,-260C1965.28,-260 2188.56,-260 2188.56,-260"/>
<polygon fill="#334155" stroke="#334155" points="2188.56,-263.5 2198.56,-260 2188.56,-256.5 2188.56,-263.5"/>
</g>
<!-- FixedRecords -->
<g id="node29" class="node">
<title>FixedRecords</title>
<ellipse fill="#f8fafc" stroke="#64748b" stroke-width="1.1" cx="2747.61" cy="-265" rx="146.89" ry="18"/>
<text xml:space="preserve" text-anchor="middle" x="2747.61" y="-259.2" font-family="Helvetica,sans-Serif" font-size="14.00">writeLaneRecords() + lane artifacts</text>
</g>
<!-- RunLanesFixed&#45;&gt;FixedRecords -->
<g id="edge27" class="edge">
<title>RunLanesFixed&#45;&gt;FixedRecords</title>
<path fill="none" stroke="#334155" d="M2519.05,-265C2519.05,-265 2588.95,-265 2588.95,-265"/>
<polygon fill="#334155" stroke="#334155" points="2588.95,-268.5 2598.95,-265 2588.95,-261.5 2588.95,-268.5"/>
</g>
<!-- FixedWt -->
<g id="node25" class="node">
<title>FixedWt</title>
<ellipse fill="#f8fafc" stroke="#64748b" stroke-width="1.1" cx="1362.26" cy="-62" rx="116.85" ry="26.87"/>
<text xml:space="preserve" text-anchor="middle" x="1362.26" y="-63.7" font-family="Helvetica,sans-Serif" font-size="14.00">git worktree add &#45;&#45;detach</text>
<text xml:space="preserve" text-anchor="middle" x="1362.26" y="-48.7" font-family="Helvetica,sans-Serif" font-size="14.00">sync workspace delta</text>
</g>
<!-- FixedPrompt -->
<g id="node26" class="node">
<title>FixedPrompt</title>
<ellipse fill="#f8fafc" stroke="#64748b" stroke-width="1.1" cx="1831.74" cy="-62" rx="147.61" ry="26.87"/>
<text xml:space="preserve" text-anchor="middle" x="1831.74" y="-63.7" font-family="Helvetica,sans-Serif" font-size="14.00">generate lane&#45;fixed&#45;args prompt</text>
<text xml:space="preserve" text-anchor="middle" x="1831.74" y="-48.7" font-family="Helvetica,sans-Serif" font-size="14.00">with EXACT_TOOL_ARGS</text>
</g>
<!-- FixedWt&#45;&gt;FixedPrompt -->
<g id="edge21" class="edge">
<title>FixedWt&#45;&gt;FixedPrompt</title>
<path fill="none" stroke="#334155" d="M1479.52,-62C1479.52,-62 1672.49,-62 1672.49,-62"/>
<polygon fill="#334155" stroke="#334155" points="1672.49,-65.5 1682.49,-62 1672.49,-58.5 1672.49,-65.5"/>
</g>
<!-- FixedHarness -->
<g id="node27" class="node">
<title>FixedHarness</title>
<path fill="#fef08a" stroke="#64748b" stroke-width="1.1" d="M2349.2,-97.51C2349.2,-97.51 2193.18,-64.49 2193.18,-64.49 2187.31,-63.24 2187.31,-60.76 2193.18,-59.51 2193.18,-59.51 2349.2,-26.49 2349.2,-26.49 2355.07,-25.24 2366.81,-25.24 2372.68,-26.49 2372.68,-26.49 2528.7,-59.51 2528.7,-59.51 2534.57,-60.76 2534.57,-63.24 2528.7,-64.49 2528.7,-64.49 2372.68,-97.51 2372.68,-97.51 2366.81,-98.76 2355.07,-98.76 2349.2,-97.51"/>
<text xml:space="preserve" text-anchor="middle" x="2360.94" y="-63.7" font-family="Helvetica,sans-Serif" font-size="14.00">Lane harness</text>
<text xml:space="preserve" text-anchor="middle" x="2360.94" y="-48.7" font-family="Helvetica,sans-Serif" font-size="14.00">direct &#45;&gt; pi_prompt fallback</text>
</g>
<!-- FixedPrompt&#45;&gt;FixedHarness -->
<g id="edge22" class="edge">
<title>FixedPrompt&#45;&gt;FixedHarness</title>
<path fill="none" stroke="#334155" d="M1979.85,-62C1979.85,-62 2167.42,-62 2167.42,-62"/>
<polygon fill="#334155" stroke="#334155" points="2167.42,-65.5 2177.42,-62 2167.42,-58.5 2167.42,-65.5"/>
</g>
<!-- FixedRun -->
<g id="node28" class="node">
<title>FixedRun</title>
<ellipse fill="#f8fafc" stroke="#64748b" stroke-width="1.1" cx="2747.61" cy="-62" rx="95.11" ry="37.48"/>
<text xml:space="preserve" text-anchor="middle" x="2747.61" y="-71.2" font-family="Helvetica,sans-Serif" font-size="14.00">run lane in worktree</text>
<text xml:space="preserve" text-anchor="middle" x="2747.61" y="-56.2" font-family="Helvetica,sans-Serif" font-size="14.00">validate protocol</text>
<text xml:space="preserve" text-anchor="middle" x="2747.61" y="-41.2" font-family="Helvetica,sans-Serif" font-size="14.00">make lane.patch</text>
</g>
<!-- FixedHarness&#45;&gt;FixedRun -->
<g id="edge23" class="edge">
<title>FixedHarness&#45;&gt;FixedRun</title>
<path fill="none" stroke="#334155" d="M2542.95,-62C2542.95,-62 2640.53,-62 2640.53,-62"/>
<polygon fill="#334155" stroke="#334155" points="2640.53,-65.5 2650.53,-62 2640.53,-58.5 2640.53,-65.5"/>
</g>
<!-- FixedManifest -->
<g id="node30" class="node">
<title>FixedManifest</title>
<ellipse fill="#f8fafc" stroke="#64748b" stroke-width="1.1" cx="4009.28" cy="-238" rx="137.14" ry="18"/>
<text xml:space="preserve" text-anchor="middle" x="4009.28" y="-232.2" font-family="Helvetica,sans-Serif" font-size="14.00">run.json update: fairness/failures</text>
</g>
<!-- FixedRecords&#45;&gt;FixedManifest -->
<g id="edge28" class="edge">
<title>FixedRecords&#45;&gt;FixedManifest</title>
<path fill="none" stroke="#334155" d="M2848.73,-251.5C2848.73,-251.5 3903.52,-251.5 3903.52,-251.5"/>
<polygon fill="#334155" stroke="#334155" points="3903.52,-255 3913.52,-251.5 3903.52,-248 3903.52,-255"/>
</g>
<!-- FixedGrade -->
<g id="node31" class="node">
<title>FixedGrade</title>
<ellipse fill="#f8fafc" stroke="#64748b" stroke-width="1.1" cx="3136.28" cy="-218" rx="139.12" ry="26.87"/>
<text xml:space="preserve" text-anchor="middle" x="3136.28" y="-219.7" font-family="Helvetica,sans-Serif" font-size="14.00">selectWinner</text>
<text xml:space="preserve" text-anchor="middle" x="3136.28" y="-204.7" font-family="Helvetica,sans-Serif" font-size="14.00">(formula/llm/blend/hardcoded)</text>
</g>
<!-- FixedRecords&#45;&gt;FixedGrade -->
<g id="edge29" class="edge">
<title>FixedRecords&#45;&gt;FixedGrade</title>
<path fill="none" stroke="#334155" d="M2868.26,-254.42C2868.26,-247.23 2868.26,-239 2868.26,-239 2868.26,-239 3035.14,-239 3035.14,-239"/>
<polygon fill="#334155" stroke="#334155" points="3035.14,-242.5 3045.14,-239 3035.14,-235.5 3035.14,-242.5"/>
</g>
<!-- FixedRecords&#45;&gt;Artifacts -->
<g id="edge52" class="edge">
<title>FixedRecords&#45;&gt;Artifacts</title>
<path fill="none" stroke="#334155" stroke-dasharray="5,2" d="M2890.64,-269.5C3185.85,-269.5 3835.26,-269.5 3835.26,-269.5 3835.26,-269.5 3835.26,-334.96 3835.26,-334.96"/>
<polygon fill="#334155" stroke="#334155" points="3831.76,-334.96 3835.26,-344.96 3838.76,-334.96 3831.76,-334.96"/>
</g>
<!-- FixedManifest&#45;&gt;FixedReturn -->
<g id="edge33" class="edge">
<title>FixedManifest&#45;&gt;FixedReturn</title>
<path fill="none" stroke="#334155" stroke-dasharray="1,5" d="M4146.91,-238C4283.71,-238 4473.26,-238 4473.26,-238 4473.26,-238 4473.26,-218.84 4473.26,-218.84"/>
<polygon fill="#334155" stroke="#334155" points="4476.76,-218.84 4473.26,-208.84 4469.76,-218.84 4476.76,-218.84"/>
</g>
<!-- FixedManifest&#45;&gt;Artifacts -->
<g id="edge50" class="edge">
<title>FixedManifest&#45;&gt;Artifacts</title>
<path fill="none" stroke="#334155" d="M4009.26,-256.34C4009.26,-256.34 4009.26,-335.35 4009.26,-335.35"/>
<polygon fill="#334155" stroke="#334155" points="4005.76,-335.35 4009.26,-345.35 4012.76,-335.35 4005.76,-335.35"/>
</g>
<!-- FixedGrading -->
<g id="node32" class="node">
<title>FixedGrading</title>
<ellipse fill="#f8fafc" stroke="#64748b" stroke-width="1.1" cx="3564.28" cy="-227" rx="130.8" ry="18"/>
<text xml:space="preserve" text-anchor="middle" x="3564.28" y="-221.2" font-family="Helvetica,sans-Serif" font-size="14.00">runGradingProcess (if needed)</text>
</g>
<!-- FixedGrade&#45;&gt;FixedGrading -->
<g id="edge30" class="edge">
<title>FixedGrade&#45;&gt;FixedGrading</title>
<path fill="none" stroke="#334155" d="M3268.18,-226.94C3268.18,-226.94 3421.66,-226.94 3421.66,-226.94"/>
<polygon fill="#334155" stroke="#334155" points="3421.66,-230.44 3431.66,-226.94 3421.66,-223.44 3421.66,-230.44"/>
<text xml:space="preserve" text-anchor="middle" x="3365.9" y="-224.75" font-family="Helvetica,sans-Serif" font-size="10.00">llm / blend</text>
</g>
<!-- FixedGrade&#45;&gt;FixedReturn -->
<g id="edge32" class="edge">
<title>FixedGrade&#45;&gt;FixedReturn</title>
<path fill="none" stroke="#334155" d="M3224.37,-196.75C3224.37,-196.75 4321.38,-196.75 4321.38,-196.75"/>
<polygon fill="#334155" stroke="#334155" points="4321.38,-200.25 4331.38,-196.75 4321.38,-193.25 4321.38,-200.25"/>
</g>
<!-- FixedGrading&#45;&gt;FixedManifest -->
<g id="edge31" class="edge">
<title>FixedGrading&#45;&gt;FixedManifest</title>
<path fill="none" stroke="#334155" d="M3695.08,-228.33C3695.08,-228.33 3880.31,-228.33 3880.31,-228.33"/>
<polygon fill="#334155" stroke="#334155" points="3880.31,-231.83 3890.31,-228.33 3880.31,-224.83 3880.31,-231.83"/>
</g>
<!-- FixedGrading&#45;&gt;Artifacts -->
<g id="edge55" class="edge">
<title>FixedGrading&#45;&gt;Artifacts</title>
<path fill="none" stroke="#334155" d="M3676,-236.67C3757.32,-236.67 3853.26,-236.67 3853.26,-236.67 3853.26,-236.67 3853.26,-335.12 3853.26,-335.12"/>
<polygon fill="#334155" stroke="#334155" points="3849.76,-335.12 3853.26,-345.12 3856.76,-335.12 3849.76,-335.12"/>
</g>
<!-- RunSingle -->
<g id="node35" class="node">
<title>RunSingle</title>
<ellipse fill="#f8fafc" stroke="#64748b" stroke-width="1.1" cx="2360.94" cy="-438" rx="163.52" ry="37.48"/>
<text xml:space="preserve" text-anchor="middle" x="2360.94" y="-447.2" font-family="Helvetica,sans-Serif" font-size="14.00">runExperimentLanesSingleCall</text>
<text xml:space="preserve" text-anchor="middle" x="2360.94" y="-432.2" font-family="Helvetica,sans-Serif" font-size="14.00">(prompt: task/context/constraints)</text>
<text xml:space="preserve" text-anchor="middle" x="2360.94" y="-417.2" font-family="Helvetica,sans-Serif" font-size="14.00">mandatory exact one target&#45;tool call</text>
</g>
<!-- SelectProxy&#45;&gt;RunSingle -->
<g id="edge35" class="edge">
<title>SelectProxy&#45;&gt;RunSingle</title>
<path fill="none" stroke="#334155" d="M2019.06,-466.24C2019.06,-466.24 2239.83,-466.24 2239.83,-466.24"/>
<polygon fill="#334155" stroke="#334155" points="2239.83,-469.74 2249.83,-466.24 2239.83,-462.74 2239.83,-469.74"/>
</g>
<!-- RunMulti -->
<g id="node36" class="node">
<title>RunMulti</title>
<ellipse fill="#f8fafc" stroke="#64748b" stroke-width="1.1" cx="2360.94" cy="-542" rx="137" ry="26.87"/>
<text xml:space="preserve" text-anchor="middle" x="2360.94" y="-543.7" font-family="Helvetica,sans-Serif" font-size="14.00">runExperimentLanesMultiCall</text>
<text xml:space="preserve" text-anchor="middle" x="2360.94" y="-528.7" font-family="Helvetica,sans-Serif" font-size="14.00">(prompt: replanning)</text>
</g>
<!-- SelectProxy&#45;&gt;RunMulti -->
<g id="edge36" class="edge">
<title>SelectProxy&#45;&gt;RunMulti</title>
<path fill="none" stroke="#334155" d="M2021.26,-483.09C2021.26,-495.82 2021.26,-519.11 2021.26,-519.11 2021.26,-519.11 2274.04,-519.11 2274.04,-519.11"/>
<polygon fill="#334155" stroke="#334155" points="2274.04,-522.61 2284.04,-519.11 2274.04,-515.61 2274.04,-522.61"/>
<text xml:space="preserve" text-anchor="middle" x="2112.69" y="-528.75" font-family="Helvetica,sans-Serif" font-size="10.00">if single_call no match</text>
</g>
<!-- ProxyRecords -->
<g id="node37" class="node">
<title>ProxyRecords</title>
<ellipse fill="#f8fafc" stroke="#64748b" stroke-width="1.1" cx="2747.61" cy="-467" rx="146.89" ry="18"/>
<text xml:space="preserve" text-anchor="middle" x="2747.61" y="-461.2" font-family="Helvetica,sans-Serif" font-size="14.00">writeLaneRecords() + lane patches</text>
</g>
<!-- RunSingle&#45;&gt;ProxyRecords -->
<g id="edge37" class="edge">
<title>RunSingle&#45;&gt;ProxyRecords</title>
<path fill="none" stroke="#334155" d="M2487.28,-462.24C2487.28,-462.24 2593.62,-462.24 2593.62,-462.24"/>
<polygon fill="#334155" stroke="#334155" points="2593.62,-465.74 2603.62,-462.24 2593.62,-458.74 2593.62,-465.74"/>
</g>
<!-- RunMulti&#45;&gt;ProxyRecords -->
<g id="edge38" class="edge">
<title>RunMulti&#45;&gt;ProxyRecords</title>
<path fill="none" stroke="#334155" d="M2449.46,-521.06C2524.58,-521.06 2620.26,-521.06 2620.26,-521.06 2620.26,-521.06 2620.26,-487.44 2620.26,-487.44"/>
<polygon fill="#334155" stroke="#334155" points="2623.76,-487.44 2620.26,-477.44 2616.76,-487.44 2623.76,-487.44"/>
</g>
<!-- ProxyGrade -->
<g id="node38" class="node">
<title>ProxyGrade</title>
<ellipse fill="#f8fafc" stroke="#64748b" stroke-width="1.1" cx="3136.28" cy="-509" rx="181.5" ry="18"/>
<text xml:space="preserve" text-anchor="middle" x="3136.28" y="-503.2" font-family="Helvetica,sans-Serif" font-size="14.00">selectWinner (formula/llm/blend/hardcoded)</text>
</g>
<!-- ProxyRecords&#45;&gt;ProxyGrade -->
<g id="edge39" class="edge">
<title>ProxyRecords&#45;&gt;ProxyGrade</title>
<path fill="none" stroke="#334155" d="M2875.26,-475.97C2875.26,-486.94 2875.26,-504.06 2875.26,-504.06 2875.26,-504.06 2949.57,-504.06 2949.57,-504.06"/>
<polygon fill="#334155" stroke="#334155" points="2949.57,-507.57 2959.57,-504.06 2949.57,-500.57 2949.57,-507.57"/>
</g>
<!-- ProxyRecords&#45;&gt;Artifacts -->
<g id="edge53" class="edge">
<title>ProxyRecords&#45;&gt;Artifacts</title>
<path fill="none" stroke="#334155" stroke-dasharray="5,2" d="M2894.91,-467C3189.93,-467 3825.26,-467 3825.26,-467 3825.26,-467 3825.26,-396.99 3825.26,-396.99"/>
<polygon fill="#334155" stroke="#334155" points="3828.76,-396.99 3825.26,-386.99 3821.76,-396.99 3828.76,-396.99"/>
</g>
<!-- ProxyGrading -->
<g id="node39" class="node">
<title>ProxyGrading</title>
<ellipse fill="#f8fafc" stroke="#64748b" stroke-width="1.1" cx="3564.28" cy="-509" rx="86.44" ry="18"/>
<text xml:space="preserve" text-anchor="middle" x="3564.28" y="-503.2" font-family="Helvetica,sans-Serif" font-size="14.00">runGradingProcess</text>
</g>
<!-- ProxyGrade&#45;&gt;ProxyGrading -->
<g id="edge40" class="edge">
<title>ProxyGrade&#45;&gt;ProxyGrading</title>
<path fill="none" stroke="#334155" d="M3318.1,-509C3318.1,-509 3465.84,-509 3465.84,-509"/>
<polygon fill="#334155" stroke="#334155" points="3465.84,-512.5 3475.84,-509 3465.84,-505.5 3465.84,-512.5"/>
<text xml:space="preserve" text-anchor="middle" x="3365.9" y="-510.75" font-family="Helvetica,sans-Serif" font-size="10.00">llm / blend</text>
</g>
<!-- ProxyReturn -->
<g id="node40" class="node">
<title>ProxyReturn</title>
<ellipse fill="#f8fafc" stroke="#64748b" stroke-width="1.1" cx="4009.28" cy="-509" rx="116.66" ry="18"/>
<text xml:space="preserve" text-anchor="middle" x="4009.28" y="-503.2" font-family="Helvetica,sans-Serif" font-size="14.00">Return winner final_answer</text>
</g>
<!-- ProxyGrade&#45;&gt;ProxyReturn -->
<g id="edge42" class="edge">
<title>ProxyGrade&#45;&gt;ProxyReturn</title>
<path fill="none" stroke="#334155" d="M3296.26,-517.64C3296.26,-529.11 3296.26,-547.94 3296.26,-547.94 3296.26,-547.94 4009.26,-547.94 4009.26,-547.94 4009.26,-547.94 4009.26,-538.61 4009.26,-538.61"/>
<polygon fill="#334155" stroke="#334155" points="4012.76,-538.61 4009.26,-528.61 4005.76,-538.61 4012.76,-538.61"/>
</g>
<!-- ProxyGrading&#45;&gt;ProxyReturn -->
<g id="edge41" class="edge">
<title>ProxyGrading&#45;&gt;ProxyReturn</title>
<path fill="none" stroke="#334155" d="M3646.41,-515C3646.41,-515 3887.16,-515 3887.16,-515"/>
<polygon fill="#334155" stroke="#334155" points="3887.16,-518.5 3897.16,-515 3887.16,-511.5 3887.16,-518.5"/>
</g>
<!-- ProxyGrading&#45;&gt;Artifacts -->
<g id="edge56" class="edge">
<title>ProxyGrading&#45;&gt;Artifacts</title>
<path fill="none" stroke="#334155" d="M3646.44,-503C3725.54,-503 3833.26,-503 3833.26,-503 3833.26,-503 3833.26,-396.85 3833.26,-396.85"/>
<polygon fill="#334155" stroke="#334155" points="3836.76,-396.85 3833.26,-386.85 3829.76,-396.85 3836.76,-396.85"/>
</g>
<!-- Artifacts&#45;&gt;EditReturn -->
<g id="edge57" class="edge">
<title>Artifacts&#45;&gt;EditReturn</title>
<path fill="none" stroke="#334155" stroke-dasharray="1,5" d="M4185.26,-385.41C4185.26,-463.68 4185.26,-752 4185.26,-752 4185.26,-752 4325.34,-752 4325.34,-752"/>
<polygon fill="#334155" stroke="#334155" points="4325.34,-755.5 4335.34,-752 4325.34,-748.5 4325.34,-755.5"/>
<text xml:space="preserve" text-anchor="middle" x="4262.28" y="-484.75" font-family="Helvetica,sans-Serif" font-size="10.00">for observability</text>
</g>
<!-- Artifacts&#45;&gt;FixedReturn -->
<g id="edge58" class="edge">
<title>Artifacts&#45;&gt;FixedReturn</title>
<path fill="none" stroke="#334155" stroke-dasharray="1,5" d="M4174.26,-346.59C4174.26,-303.25 4174.26,-202.38 4174.26,-202.38 4174.26,-202.38 4342.38,-202.38 4342.38,-202.38"/>
<polygon fill="#334155" stroke="#334155" points="4342.38,-205.88 4352.38,-202.38 4342.38,-198.88 4342.38,-205.88"/>
</g>
<!-- Artifacts&#45;&gt;ProxyReturn -->
<g id="edge59" class="edge">
<title>Artifacts&#45;&gt;ProxyReturn</title>
<path fill="none" stroke="#334155" stroke-dasharray="1,5" d="M4009.26,-385.29C4009.26,-385.29 4009.26,-478.96 4009.26,-478.96"/>
<polygon fill="#334155" stroke="#334155" points="4005.76,-478.96 4009.26,-488.96 4012.76,-478.96 4005.76,-478.96"/>
</g>
</g>
</svg>
