<?xml version="1.0" encoding="UTF-8" standalone="no"?>
<!DOCTYPE svg PUBLIC "-//W3C//DTD SVG 1.1//EN"
 "http://www.w3.org/Graphics/SVG/1.1/DTD/svg11.dtd">
<!-- Generated by graphviz version 14.1.4 (20260321.0153)
 -->
<!-- Title: PiLabFlow Pages: 1 -->
<svg width="596pt" height="1236pt"
 viewBox="0.00 0.00 596.00 1236.00" xmlns="http://www.w3.org/2000/svg" xmlns:xlink="http://www.w3.org/1999/xlink">
<g id="graph0" class="graph" transform="scale(1 1) rotate(0) translate(25.2 1210.59)">
<title>PiLabFlow</title>
<polygon fill="#0d1117" stroke="none" points="-25.2,25.2 -25.2,-1210.59 570.7,-1210.59 570.7,25.2 -25.2,25.2"/>
<text xml:space="preserve" text-anchor="middle" x="272.75" y="-1162.39" font-family="Arial" font-size="20.00" fill="#f0f6fc">pi&#45;lab extension flow</text>
<text xml:space="preserve" text-anchor="middle" x="272.75" y="-1139.14" font-family="Arial" font-size="20.00" fill="#f0f6fc">(intercept → isolate → execute → select → apply → persist)</text>
<g id="clust1" class="cluster">
<title>cluster_exec</title>
<path fill="#0d1117" stroke="#30363d" d="M169.45,-439.97C169.45,-439.97 388.45,-439.97 388.45,-439.97 394.45,-439.97 400.45,-445.97 400.45,-451.97 400.45,-451.97 400.45,-789.67 400.45,-789.67 400.45,-795.67 394.45,-801.67 388.45,-801.67 388.45,-801.67 169.45,-801.67 169.45,-801.67 163.45,-801.67 157.45,-795.67 157.45,-789.67 157.45,-789.67 157.45,-451.97 157.45,-451.97 157.45,-445.97 163.45,-439.97 169.45,-439.97"/>
<text xml:space="preserve" text-anchor="middle" x="278.95" y="-778.67" font-family="Arial" font-size="20.00" fill="#f0f6fc">Stage 3: Execute strategy</text>
</g>
<!-- start -->
<g id="node1" class="node">
<title>start</title>
<ellipse fill="#1f2430" stroke="#58a6ff" stroke-width="1.2" cx="351.45" cy="-1100.55" rx="71.98" ry="30.33"/>
<text xml:space="preserve" text-anchor="middle" x="351.45" y="-1103.4" font-family="Arial" font-size="12.00" fill="#f0f6fc">User / LLM</text>
<text xml:space="preserve" text-anchor="middle" x="351.45" y="-1089.15" font-family="Arial" font-size="12.00" fill="#f0f6fc">issues tool call</text>
</g>
<!-- intercept -->
<g id="node2" class="node">
<title>intercept</title>
<path fill="#161b22" stroke="#30363d" stroke-width="1.2" d="M414.72,-1011.22C414.72,-1011.22 288.18,-1011.22 288.18,-1011.22 282.18,-1011.22 276.18,-1005.22 276.18,-999.22 276.18,-999.22 276.18,-980.32 276.18,-980.32 276.18,-974.32 282.18,-968.32 288.18,-968.32 288.18,-968.32 414.72,-968.32 414.72,-968.32 420.72,-968.32 426.72,-974.32 426.72,-980.32 426.72,-980.32 426.72,-999.22 426.72,-999.22 426.72,-1005.22 420.72,-1011.22 414.72,-1011.22"/>
<text xml:space="preserve" text-anchor="middle" x="351.45" y="-992.62" font-family="Arial" font-size="12.00" fill="#e6edf3">Stage 1: Intercept</text>
<text xml:space="preserve" text-anchor="middle" x="351.45" y="-978.37" font-family="Arial" font-size="12.00" fill="#e6edf3">match tool + trigger gate</text>
</g>
<!-- start&#45;&gt;intercept -->
<g id="edge1" class="edge">
<title>start&#45;&gt;intercept</title>
<path fill="none" stroke="#8b949e" stroke-width="1.3" d="M351.45,-1069.69C351.45,-1069.69 351.45,-1021.66 351.45,-1021.66"/>
<polygon fill="#8b949e" stroke="#8b949e" stroke-width="1.3" points="354.25,-1021.66 351.45,-1013.66 348.65,-1021.66 354.25,-1021.66"/>
</g>
<!-- isolate -->
<g id="node3" class="node">
<title>isolate</title>
<path fill="#161b22" stroke="#30363d" stroke-width="1.2" d="M419.97,-909.32C419.97,-909.32 282.93,-909.32 282.93,-909.32 276.93,-909.32 270.93,-903.32 270.93,-897.32 270.93,-897.32 270.93,-864.17 270.93,-864.17 270.93,-858.17 276.93,-852.17 282.93,-852.17 282.93,-852.17 419.97,-852.17 419.97,-852.17 425.97,-852.17 431.97,-858.17 431.97,-864.17 431.97,-864.17 431.97,-897.32 431.97,-897.32 431.97,-903.32 425.97,-909.32 419.97,-909.32"/>
<text xml:space="preserve" text-anchor="middle" x="351.45" y="-890.72" font-family="Arial" font-size="12.00" fill="#e6edf3">Stage 2: Fork lanes</text>
<text xml:space="preserve" text-anchor="middle" x="351.45" y="-876.47" font-family="Arial" font-size="12.00" fill="#e6edf3">create isolated worktrees</text>
<text xml:space="preserve" text-anchor="middle" x="351.45" y="-862.22" font-family="Arial" font-size="12.00" fill="#e6edf3">and sync workspace delta</text>
</g>
<!-- intercept&#45;&gt;isolate -->
<g id="edge2" class="edge">
<title>intercept&#45;&gt;isolate</title>
<path fill="none" stroke="#8b949e" stroke-width="1.3" d="M351.45,-967.97C351.45,-967.97 351.45,-919.5 351.45,-919.5"/>
<polygon fill="#8b949e" stroke="#8b949e" stroke-width="1.3" points="354.25,-919.5 351.45,-911.5 348.65,-919.5 354.25,-919.5"/>
</g>
<!-- fixed -->
<g id="node4" class="node">
<title>fixed</title>
<path fill="#13203a" stroke="#388bfd" stroke-width="1.2" d="M344.47,-762.42C344.47,-762.42 210.43,-762.42 210.43,-762.42 204.43,-762.42 198.43,-756.42 198.43,-750.42 198.43,-750.42 198.43,-717.27 198.43,-717.27 198.43,-711.27 204.43,-705.27 210.43,-705.27 210.43,-705.27 344.47,-705.27 344.47,-705.27 350.47,-705.27 356.47,-711.27 356.47,-717.27 356.47,-717.27 356.47,-750.42 356.47,-750.42 356.47,-756.42 350.47,-762.42 344.47,-762.42"/>
<text xml:space="preserve" text-anchor="middle" x="277.45" y="-743.82" font-family="Arial" font-size="12.00" fill="#e6edf3">fixed_args</text>
<text xml:space="preserve" text-anchor="middle" x="277.45" y="-729.57" font-family="Arial" font-size="12.00" fill="#e6edf3">prefer direct lane harness</text>
<text xml:space="preserve" text-anchor="middle" x="277.45" y="-715.32" font-family="Arial" font-size="12.00" fill="#e6edf3">for identical tool args</text>
</g>
<!-- isolate&#45;&gt;fixed -->
<g id="edge3" class="edge">
<title>isolate&#45;&gt;fixed</title>
<path fill="none" stroke="#8b949e" stroke-width="1.3" d="M313.7,-851.72C313.7,-851.72 313.7,-772.77 313.7,-772.77"/>
<polygon fill="#8b949e" stroke="#8b949e" stroke-width="1.3" points="316.5,-772.77 313.7,-764.77 310.9,-772.77 316.5,-772.77"/>
<text xml:space="preserve" text-anchor="middle" x="340.2" y="-812.72" font-family="Arial" font-size="11.00" fill="#c9d1d9">fixed_args</text>
</g>
<!-- proxy -->
<g id="node6" class="node">
<title>proxy</title>
<path fill="#13203a" stroke="#388bfd" stroke-width="1.2" d="M366.84,-505.12C366.84,-505.12 190.05,-505.12 190.05,-505.12 184.05,-505.12 178.05,-499.12 178.05,-493.12 178.05,-493.12 178.05,-459.97 178.05,-459.97 178.05,-453.97 184.05,-447.97 190.05,-447.97 190.05,-447.97 366.84,-447.97 366.84,-447.97 372.84,-447.97 378.84,-453.97 378.84,-459.97 378.84,-459.97 378.84,-493.12 378.84,-493.12 378.84,-499.12 372.84,-505.12 366.84,-505.12"/>
<text xml:space="preserve" text-anchor="middle" x="278.45" y="-486.52" font-family="Arial" font-size="12.00" fill="#e6edf3">lane_single_call / lane_multi_call</text>
<text xml:space="preserve" text-anchor="middle" x="278.45" y="-472.27" font-family="Arial" font-size="12.00" fill="#e6edf3">run lane&#45;specific prompt flow</text>
<text xml:space="preserve" text-anchor="middle" x="278.45" y="-458.02" font-family="Arial" font-size="12.00" fill="#e6edf3">via pi subprocess</text>
</g>
<!-- isolate&#45;&gt;proxy -->
<g id="edge4" class="edge">
<title>isolate&#45;&gt;proxy</title>
<path fill="none" stroke="#8b949e" stroke-width="1.3" d="M405.4,-851.71C405.4,-759.13 405.4,-477 405.4,-477 405.4,-477 389.37,-477 389.37,-477"/>
<polygon fill="#8b949e" stroke="#8b949e" stroke-width="1.3" points="389.37,-474.2 381.37,-477 389.37,-479.8 389.37,-474.2"/>
<text xml:space="preserve" text-anchor="middle" x="461.45" y="-665.82" font-family="Arial" font-size="11.00" fill="#c9d1d9">single/multi call</text>
</g>
<!-- fixed_fallback -->
<g id="node5" class="node">
<title>fixed_fallback</title>
<path fill="#2d1f08" stroke="#d29922" stroke-width="1.2" d="M364.72,-633.77C364.72,-633.77 190.18,-633.77 190.18,-633.77 184.18,-633.77 178.18,-627.77 178.18,-621.77 178.18,-621.77 178.18,-588.62 178.18,-588.62 178.18,-582.62 184.18,-576.62 190.18,-576.62 190.18,-576.62 364.72,-576.62 364.72,-576.62 370.72,-576.62 376.72,-582.62 376.72,-588.62 376.72,-588.62 376.72,-621.77 376.72,-621.77 376.72,-627.77 370.72,-633.77 364.72,-633.77"/>
<text xml:space="preserve" text-anchor="middle" x="277.45" y="-615.17" font-family="Arial" font-size="12.00" fill="#e6edf3">direct harness unsupported / fails</text>
<text xml:space="preserve" text-anchor="middle" x="277.45" y="-600.92" font-family="Arial" font-size="12.00" fill="#e6edf3">record fallback reason</text>
<text xml:space="preserve" text-anchor="middle" x="277.45" y="-586.67" font-family="Arial" font-size="12.00" fill="#e6edf3">and switch to pi prompt mode</text>
</g>
<!-- fixed&#45;&gt;fixed_fallback -->
<g id="edge6" class="edge">
<title>fixed&#45;&gt;fixed_fallback</title>
<path fill="none" stroke="#8b949e" stroke-width="1.3" d="M277.45,-704.97C277.45,-704.97 277.45,-643.94 277.45,-643.94"/>
<polygon fill="#8b949e" stroke="#8b949e" stroke-width="1.3" points="280.25,-643.94 277.45,-635.94 274.65,-643.94 280.25,-643.94"/>
<text xml:space="preserve" text-anchor="middle" x="295.45" y="-665.82" font-family="Arial" font-size="11.00" fill="#c9d1d9">fallback</text>
</g>
<!-- winner -->
<g id="node7" class="node">
<title>winner</title>
<path fill="#1a2332" stroke="#a371f7" stroke-width="1.2" d="M232.72,-388.97C232.72,-388.97 64.18,-388.97 64.18,-388.97 58.18,-388.97 52.18,-382.97 52.18,-376.97 52.18,-376.97 52.18,-358.07 52.18,-358.07 52.18,-352.07 58.18,-346.07 64.18,-346.07 64.18,-346.07 232.72,-346.07 232.72,-346.07 238.72,-346.07 244.72,-352.07 244.72,-358.07 244.72,-358.07 244.72,-376.97 244.72,-376.97 244.72,-382.97 238.72,-388.97 232.72,-388.97"/>
<text xml:space="preserve" text-anchor="middle" x="148.45" y="-370.37" font-family="Arial" font-size="12.00" fill="#e6edf3">Stage 4: Choose winner</text>
<text xml:space="preserve" text-anchor="middle" x="148.45" y="-356.12" font-family="Arial" font-size="12.00" fill="#e6edf3">hardcoded | formula | llm | blend</text>
</g>
<!-- fixed&#45;&gt;winner -->
<g id="edge5" class="edge">
<title>fixed&#45;&gt;winner</title>
<path fill="none" stroke="#8b949e" stroke-width="1.3" d="M198.18,-734C156.98,-734 115.12,-734 115.12,-734 115.12,-734 115.12,-399.31 115.12,-399.31"/>
<polygon fill="#8b949e" stroke="#8b949e" stroke-width="1.3" points="117.92,-399.31 115.12,-391.31 112.32,-399.31 117.92,-399.31"/>
<text xml:space="preserve" text-anchor="middle" x="163.2" y="-537.17" font-family="Arial" font-size="11.00" fill="#c9d1d9">direct success</text>
</g>
<!-- fixed_fallback&#45;&gt;proxy -->
<g id="edge7" class="edge">
<title>fixed_fallback&#45;&gt;proxy</title>
<path fill="none" stroke="#8b949e" stroke-width="1.3" d="M277.45,-576.32C277.45,-576.32 277.45,-515.29 277.45,-515.29"/>
<polygon fill="#8b949e" stroke="#8b949e" stroke-width="1.3" points="280.25,-515.29 277.45,-507.29 274.65,-515.29 280.25,-515.29"/>
</g>
<!-- proxy&#45;&gt;winner -->
<g id="edge8" class="edge">
<title>proxy&#45;&gt;winner</title>
<path fill="none" stroke="#8b949e" stroke-width="1.3" d="M211.38,-447.61C211.38,-447.61 211.38,-399.28 211.38,-399.28"/>
<polygon fill="#8b949e" stroke="#8b949e" stroke-width="1.3" points="214.19,-399.28 211.39,-391.28 208.59,-399.28 214.19,-399.28"/>
</g>
<!-- apply -->
<g id="node8" class="node">
<title>apply</title>
<path fill="#1b2a1e" stroke="#3fb950" stroke-width="1.2" d="M231.59,-287.07C231.59,-287.07 65.3,-287.07 65.3,-287.07 59.3,-287.07 53.3,-281.07 53.3,-275.07 53.3,-275.07 53.3,-241.92 53.3,-241.92 53.3,-235.92 59.3,-229.92 65.3,-229.92 65.3,-229.92 231.59,-229.92 231.59,-229.92 237.59,-229.92 243.59,-235.92 243.59,-241.92 243.59,-241.92 243.59,-275.07 243.59,-275.07 243.59,-281.07 237.59,-287.07 231.59,-287.07"/>
<text xml:space="preserve" text-anchor="middle" x="148.45" y="-268.47" font-family="Arial" font-size="12.00" fill="#e6edf3">Stage 5: Apply result</text>
<text xml:space="preserve" text-anchor="middle" x="148.45" y="-254.22" font-family="Arial" font-size="12.00" fill="#e6edf3">apply winning patch / output</text>
<text xml:space="preserve" text-anchor="middle" x="148.45" y="-239.97" font-family="Arial" font-size="12.00" fill="#e6edf3">with baseline fallback if needed</text>
</g>
<!-- winner&#45;&gt;apply -->
<g id="edge9" class="edge">
<title>winner&#45;&gt;apply</title>
<path fill="none" stroke="#8b949e" stroke-width="1.3" d="M148.45,-345.72C148.45,-345.72 148.45,-297.25 148.45,-297.25"/>
<polygon fill="#8b949e" stroke="#8b949e" stroke-width="1.3" points="151.25,-297.25 148.45,-289.25 145.65,-297.25 151.25,-297.25"/>
</g>
<!-- persist -->
<g id="node9" class="node">
<title>persist</title>
<path fill="#161b22" stroke="#58a6ff" stroke-width="1.2" d="M236.84,-170.92C236.84,-170.92 60.05,-170.92 60.05,-170.92 54.05,-170.92 48.05,-164.92 48.05,-158.92 48.05,-158.92 48.05,-111.52 48.05,-111.52 48.05,-105.52 54.05,-99.52 60.05,-99.52 60.05,-99.52 236.84,-99.52 236.84,-99.52 242.84,-99.52 248.84,-105.52 248.84,-111.52 248.84,-111.52 248.84,-158.92 248.84,-158.92 248.84,-164.92 242.84,-170.92 236.84,-170.92"/>
<text xml:space="preserve" text-anchor="middle" x="148.45" y="-152.32" font-family="Arial" font-size="12.00" fill="#e6edf3">Stage 6: Persist telemetry</text>
<text xml:space="preserve" text-anchor="middle" x="148.45" y="-138.07" font-family="Arial" font-size="12.00" fill="#e6edf3">run.json, lane artifacts, grading IO</text>
<text xml:space="preserve" text-anchor="middle" x="148.45" y="-123.82" font-family="Arial" font-size="12.00" fill="#e6edf3">local: .pi/lab/...</text>
<text xml:space="preserve" text-anchor="middle" x="148.45" y="-109.57" font-family="Arial" font-size="12.00" fill="#e6edf3">global: ~/.pi/agent/lab/...</text>
</g>
<!-- apply&#45;&gt;persist -->
<g id="edge10" class="edge">
<title>apply&#45;&gt;persist</title>
<path fill="none" stroke="#8b949e" stroke-width="1.3" d="M148.45,-229.59C148.45,-229.59 148.45,-181.41 148.45,-181.41"/>
<polygon fill="#8b949e" stroke="#8b949e" stroke-width="1.3" points="151.25,-181.41 148.45,-173.41 145.65,-181.41 151.25,-181.41"/>
</g>
<!-- end -->
<g id="node10" class="node">
<title>end</title>
<ellipse fill="#1b2a1e" stroke="#3fb950" stroke-width="1.2" cx="148.45" cy="-20.26" rx="31.67" ry="20.26"/>
<text xml:space="preserve" text-anchor="middle" x="148.45" y="-15.98" font-family="Arial" font-size="12.00" fill="#e6edf3">End</text>
</g>
<!-- persist&#45;&gt;end -->
<g id="edge11" class="edge">
<title>persist&#45;&gt;end</title>
<path fill="none" stroke="#8b949e" stroke-width="1.3" d="M148.45,-99.16C148.45,-99.16 148.45,-50.76 148.45,-50.76"/>
<polygon fill="#8b949e" stroke="#8b949e" stroke-width="1.3" points="151.25,-50.76 148.45,-42.76 145.65,-50.76 151.25,-50.76"/>
</g>
</g>
</svg>
