<?xml version="1.0" encoding="UTF-8" standalone="no"?>
<!DOCTYPE svg PUBLIC "-//W3C//DTD SVG 1.1//EN"
 "http://www.w3.org/Graphics/SVG/1.1/DTD/svg11.dtd">
<!-- Generated by graphviz version 14.1.4 (20260321.0153)
 -->
<!-- Title: PiLabFlow Pages: 1 -->
<svg width="596pt" height="1256pt"
 viewBox="0.00 0.00 596.00 1256.00" xmlns="http://www.w3.org/2000/svg" xmlns:xlink="http://www.w3.org/1999/xlink">
<g id="graph0" class="graph" transform="scale(1 1) rotate(0) translate(25.2 1230.74)">
<title>PiLabFlow</title>
<polygon fill="#212830" stroke="none" points="-25.2,25.2 -25.2,-1230.74 570.7,-1230.74 570.7,25.2 -25.2,25.2"/>
<text xml:space="preserve" text-anchor="middle" x="272.75" y="-1182.54" font-family="Arial" font-size="20.00" fill="#f0f6fc">pi&#45;lab extension flow</text>
<text xml:space="preserve" text-anchor="middle" x="272.75" y="-1159.29" font-family="Arial" font-size="20.00" fill="#f0f6fc">(intercept → isolate → execute → select → apply → persist)</text>
<g id="clust1" class="cluster">
<title>cluster_exec</title>
<path fill="#212830" stroke="#30363d" d="M169.45,-460.12C169.45,-460.12 388.45,-460.12 388.45,-460.12 394.45,-460.12 400.45,-466.12 400.45,-472.12 400.45,-472.12 400.45,-809.82 400.45,-809.82 400.45,-815.82 394.45,-821.82 388.45,-821.82 388.45,-821.82 169.45,-821.82 169.45,-821.82 163.45,-821.82 157.45,-815.82 157.45,-809.82 157.45,-809.82 157.45,-472.12 157.45,-472.12 157.45,-466.12 163.45,-460.12 169.45,-460.12"/>
<text xml:space="preserve" text-anchor="middle" x="278.95" y="-798.82" font-family="Arial" font-size="20.00" fill="#f0f6fc">Stage 3: Execute strategy</text>
</g>
<!-- start -->
<g id="node1" class="node">
<title>start</title>
<ellipse fill="#1f2430" stroke="#58a6ff" stroke-width="1.2" cx="351.45" cy="-1120.7" rx="71.98" ry="30.33"/>
<text xml:space="preserve" text-anchor="middle" x="351.45" y="-1123.55" font-family="Arial" font-size="12.00" fill="#f0f6fc">User / LLM</text>
<text xml:space="preserve" text-anchor="middle" x="351.45" y="-1109.3" font-family="Arial" font-size="12.00" fill="#f0f6fc">issues tool call</text>
</g>
<!-- intercept -->
<g id="node2" class="node">
<title>intercept</title>
<path fill="#161b22" stroke="#30363d" stroke-width="1.2" d="M414.72,-1031.37C414.72,-1031.37 288.18,-1031.37 288.18,-1031.37 282.18,-1031.37 276.18,-1025.37 276.18,-1019.37 276.18,-1019.37 276.18,-1000.47 276.18,-1000.47 276.18,-994.47 282.18,-988.47 288.18,-988.47 288.18,-988.47 414.72,-988.47 414.72,-988.47 420.72,-988.47 426.72,-994.47 426.72,-1000.47 426.72,-1000.47 426.72,-1019.37 426.72,-1019.37 426.72,-1025.37 420.72,-1031.37 414.72,-1031.37"/>
<text xml:space="preserve" text-anchor="middle" x="351.45" y="-1012.77" font-family="Arial" font-size="12.00" fill="#e6edf3">Stage 1: Intercept</text>
<text xml:space="preserve" text-anchor="middle" x="351.45" y="-998.52" font-family="Arial" font-size="12.00" fill="#e6edf3">match tool + trigger gate</text>
</g>
<!-- start&#45;&gt;intercept -->
<g id="edge1" class="edge">
<title>start&#45;&gt;intercept</title>
<path fill="none" stroke="#8b949e" stroke-width="1.3" d="M351.45,-1089.84C351.45,-1089.84 351.45,-1041.81 351.45,-1041.81"/>
<polygon fill="#8b949e" stroke="#8b949e" stroke-width="1.3" points="354.25,-1041.81 351.45,-1033.81 348.65,-1041.81 354.25,-1041.81"/>
</g>
<!-- isolate -->
<g id="node3" class="node">
<title>isolate</title>
<path fill="#161b22" stroke="#30363d" stroke-width="1.2" d="M419.97,-929.47C419.97,-929.47 282.93,-929.47 282.93,-929.47 276.93,-929.47 270.93,-923.47 270.93,-917.47 270.93,-917.47 270.93,-884.32 270.93,-884.32 270.93,-878.32 276.93,-872.32 282.93,-872.32 282.93,-872.32 419.97,-872.32 419.97,-872.32 425.97,-872.32 431.97,-878.32 431.97,-884.32 431.97,-884.32 431.97,-917.47 431.97,-917.47 431.97,-923.47 425.97,-929.47 419.97,-929.47"/>
<text xml:space="preserve" text-anchor="middle" x="351.45" y="-910.87" font-family="Arial" font-size="12.00" fill="#e6edf3">Stage 2: Fork lanes</text>
<text xml:space="preserve" text-anchor="middle" x="351.45" y="-896.62" font-family="Arial" font-size="12.00" fill="#e6edf3">create isolated worktrees</text>
<text xml:space="preserve" text-anchor="middle" x="351.45" y="-882.37" font-family="Arial" font-size="12.00" fill="#e6edf3">and sync workspace delta</text>
</g>
<!-- intercept&#45;&gt;isolate -->
<g id="edge2" class="edge">
<title>intercept&#45;&gt;isolate</title>
<path fill="none" stroke="#8b949e" stroke-width="1.3" d="M351.45,-988.12C351.45,-988.12 351.45,-939.66 351.45,-939.66"/>
<polygon fill="#8b949e" stroke="#8b949e" stroke-width="1.3" points="354.25,-939.66 351.45,-931.66 348.65,-939.66 354.25,-939.66"/>
</g>
<!-- fixed -->
<g id="node4" class="node">
<title>fixed</title>
<path fill="#13203a" stroke="#388bfd" stroke-width="1.2" d="M344.47,-782.57C344.47,-782.57 210.43,-782.57 210.43,-782.57 204.43,-782.57 198.43,-776.57 198.43,-770.57 198.43,-770.57 198.43,-737.42 198.43,-737.42 198.43,-731.42 204.43,-725.42 210.43,-725.42 210.43,-725.42 344.47,-725.42 344.47,-725.42 350.47,-725.42 356.47,-731.42 356.47,-737.42 356.47,-737.42 356.47,-770.57 356.47,-770.57 356.47,-776.57 350.47,-782.57 344.47,-782.57"/>
<text xml:space="preserve" text-anchor="middle" x="277.45" y="-763.97" font-family="Arial" font-size="12.00" fill="#e6edf3">fixed_args</text>
<text xml:space="preserve" text-anchor="middle" x="277.45" y="-749.72" font-family="Arial" font-size="12.00" fill="#e6edf3">prefer direct lane harness</text>
<text xml:space="preserve" text-anchor="middle" x="277.45" y="-735.47" font-family="Arial" font-size="12.00" fill="#e6edf3">for identical tool args</text>
</g>
<!-- isolate&#45;&gt;fixed -->
<g id="edge3" class="edge">
<title>isolate&#45;&gt;fixed</title>
<path fill="none" stroke="#8b949e" stroke-width="1.3" d="M313.7,-871.87C313.7,-871.87 313.7,-792.92 313.7,-792.92"/>
<polygon fill="#8b949e" stroke="#8b949e" stroke-width="1.3" points="316.5,-792.92 313.7,-784.92 310.9,-792.92 316.5,-792.92"/>
<text xml:space="preserve" text-anchor="middle" x="340.2" y="-832.87" font-family="Arial" font-size="11.00" fill="#c9d1d9">fixed_args</text>
</g>
<!-- proxy -->
<g id="node6" class="node">
<title>proxy</title>
<path fill="#13203a" stroke="#388bfd" stroke-width="1.2" d="M366.84,-525.27C366.84,-525.27 190.05,-525.27 190.05,-525.27 184.05,-525.27 178.05,-519.27 178.05,-513.27 178.05,-513.27 178.05,-480.12 178.05,-480.12 178.05,-474.12 184.05,-468.12 190.05,-468.12 190.05,-468.12 366.84,-468.12 366.84,-468.12 372.84,-468.12 378.84,-474.12 378.84,-480.12 378.84,-480.12 378.84,-513.27 378.84,-513.27 378.84,-519.27 372.84,-525.27 366.84,-525.27"/>
<text xml:space="preserve" text-anchor="middle" x="278.45" y="-506.67" font-family="Arial" font-size="12.00" fill="#e6edf3">lane_single_call / lane_multi_call</text>
<text xml:space="preserve" text-anchor="middle" x="278.45" y="-492.42" font-family="Arial" font-size="12.00" fill="#e6edf3">run lane&#45;specific prompt flow</text>
<text xml:space="preserve" text-anchor="middle" x="278.45" y="-478.17" font-family="Arial" font-size="12.00" fill="#e6edf3">via pi subprocess</text>
</g>
<!-- isolate&#45;&gt;proxy -->
<g id="edge4" class="edge">
<title>isolate&#45;&gt;proxy</title>
<path fill="none" stroke="#8b949e" stroke-width="1.3" d="M405.4,-871.85C405.4,-779.24 405.4,-497 405.4,-497 405.4,-497 389.37,-497 389.37,-497"/>
<polygon fill="#8b949e" stroke="#8b949e" stroke-width="1.3" points="389.37,-494.2 381.37,-497 389.37,-499.8 389.37,-494.2"/>
<text xml:space="preserve" text-anchor="middle" x="461.45" y="-685.97" font-family="Arial" font-size="11.00" fill="#c9d1d9">single/multi call</text>
</g>
<!-- fixed_fallback -->
<g id="node5" class="node">
<title>fixed_fallback</title>
<path fill="#2d1f08" stroke="#d29922" stroke-width="1.2" d="M364.72,-653.92C364.72,-653.92 190.18,-653.92 190.18,-653.92 184.18,-653.92 178.18,-647.92 178.18,-641.92 178.18,-641.92 178.18,-608.77 178.18,-608.77 178.18,-602.77 184.18,-596.77 190.18,-596.77 190.18,-596.77 364.72,-596.77 364.72,-596.77 370.72,-596.77 376.72,-602.77 376.72,-608.77 376.72,-608.77 376.72,-641.92 376.72,-641.92 376.72,-647.92 370.72,-653.92 364.72,-653.92"/>
<text xml:space="preserve" text-anchor="middle" x="277.45" y="-635.32" font-family="Arial" font-size="12.00" fill="#e6edf3">direct harness unsupported / fails</text>
<text xml:space="preserve" text-anchor="middle" x="277.45" y="-621.07" font-family="Arial" font-size="12.00" fill="#e6edf3">record fallback reason</text>
<text xml:space="preserve" text-anchor="middle" x="277.45" y="-606.82" font-family="Arial" font-size="12.00" fill="#e6edf3">and switch to pi prompt mode</text>
</g>
<!-- fixed&#45;&gt;fixed_fallback -->
<g id="edge6" class="edge">
<title>fixed&#45;&gt;fixed_fallback</title>
<path fill="none" stroke="#8b949e" stroke-width="1.3" d="M277.45,-725.12C277.45,-725.12 277.45,-664.09 277.45,-664.09"/>
<polygon fill="#8b949e" stroke="#8b949e" stroke-width="1.3" points="280.25,-664.09 277.45,-656.09 274.65,-664.09 280.25,-664.09"/>
<text xml:space="preserve" text-anchor="middle" x="295.45" y="-685.97" font-family="Arial" font-size="11.00" fill="#c9d1d9">fallback</text>
</g>
<!-- winner -->
<g id="node7" class="node">
<title>winner</title>
<path fill="#1a2332" stroke="#a371f7" stroke-width="1.2" d="M232.72,-409.12C232.72,-409.12 64.18,-409.12 64.18,-409.12 58.18,-409.12 52.18,-403.12 52.18,-397.12 52.18,-397.12 52.18,-378.22 52.18,-378.22 52.18,-372.22 58.18,-366.22 64.18,-366.22 64.18,-366.22 232.72,-366.22 232.72,-366.22 238.72,-366.22 244.72,-372.22 244.72,-378.22 244.72,-378.22 244.72,-397.12 244.72,-397.12 244.72,-403.12 238.72,-409.12 232.72,-409.12"/>
<text xml:space="preserve" text-anchor="middle" x="148.45" y="-390.52" font-family="Arial" font-size="12.00" fill="#e6edf3">Stage 4: Choose winner</text>
<text xml:space="preserve" text-anchor="middle" x="148.45" y="-376.27" font-family="Arial" font-size="12.00" fill="#e6edf3">hardcoded | formula | llm | blend</text>
</g>
<!-- fixed&#45;&gt;winner -->
<g id="edge5" class="edge">
<title>fixed&#45;&gt;winner</title>
<path fill="none" stroke="#8b949e" stroke-width="1.3" d="M198.18,-754C156.98,-754 115.12,-754 115.12,-754 115.12,-754 115.12,-419.46 115.12,-419.46"/>
<polygon fill="#8b949e" stroke="#8b949e" stroke-width="1.3" points="117.92,-419.46 115.12,-411.46 112.32,-419.46 117.92,-419.46"/>
<text xml:space="preserve" text-anchor="middle" x="163.2" y="-557.32" font-family="Arial" font-size="11.00" fill="#c9d1d9">direct success</text>
</g>
<!-- fixed_fallback&#45;&gt;proxy -->
<g id="edge7" class="edge">
<title>fixed_fallback&#45;&gt;proxy</title>
<path fill="none" stroke="#8b949e" stroke-width="1.3" d="M277.45,-596.47C277.45,-596.47 277.45,-535.44 277.45,-535.44"/>
<polygon fill="#8b949e" stroke="#8b949e" stroke-width="1.3" points="280.25,-535.44 277.45,-527.44 274.65,-535.44 280.25,-535.44"/>
</g>
<!-- proxy&#45;&gt;winner -->
<g id="edge8" class="edge">
<title>proxy&#45;&gt;winner</title>
<path fill="none" stroke="#8b949e" stroke-width="1.3" d="M211.38,-467.76C211.38,-467.76 211.38,-419.44 211.38,-419.44"/>
<polygon fill="#8b949e" stroke="#8b949e" stroke-width="1.3" points="214.19,-419.44 211.39,-411.44 208.59,-419.44 214.19,-419.44"/>
</g>
<!-- apply -->
<g id="node8" class="node">
<title>apply</title>
<path fill="#1b2a1e" stroke="#3fb950" stroke-width="1.2" d="M231.59,-307.22C231.59,-307.22 65.3,-307.22 65.3,-307.22 59.3,-307.22 53.3,-301.22 53.3,-295.22 53.3,-295.22 53.3,-262.07 53.3,-262.07 53.3,-256.07 59.3,-250.07 65.3,-250.07 65.3,-250.07 231.59,-250.07 231.59,-250.07 237.59,-250.07 243.59,-256.07 243.59,-262.07 243.59,-262.07 243.59,-295.22 243.59,-295.22 243.59,-301.22 237.59,-307.22 231.59,-307.22"/>
<text xml:space="preserve" text-anchor="middle" x="148.45" y="-288.62" font-family="Arial" font-size="12.00" fill="#e6edf3">Stage 5: Apply result</text>
<text xml:space="preserve" text-anchor="middle" x="148.45" y="-274.37" font-family="Arial" font-size="12.00" fill="#e6edf3">apply winning patch / output</text>
<text xml:space="preserve" text-anchor="middle" x="148.45" y="-260.12" font-family="Arial" font-size="12.00" fill="#e6edf3">with baseline fallback if needed</text>
</g>
<!-- winner&#45;&gt;apply -->
<g id="edge9" class="edge">
<title>winner&#45;&gt;apply</title>
<path fill="none" stroke="#8b949e" stroke-width="1.3" d="M148.45,-365.87C148.45,-365.87 148.45,-317.41 148.45,-317.41"/>
<polygon fill="#8b949e" stroke="#8b949e" stroke-width="1.3" points="151.25,-317.41 148.45,-309.41 145.65,-317.41 151.25,-317.41"/>
</g>
<!-- persist -->
<g id="node9" class="node">
<title>persist</title>
<path fill="#161b22" stroke="#58a6ff" stroke-width="1.2" d="M236.84,-191.07C236.84,-191.07 60.05,-191.07 60.05,-191.07 54.05,-191.07 48.05,-185.07 48.05,-179.07 48.05,-179.07 48.05,-131.67 48.05,-131.67 48.05,-125.67 54.05,-119.67 60.05,-119.67 60.05,-119.67 236.84,-119.67 236.84,-119.67 242.84,-119.67 248.84,-125.67 248.84,-131.67 248.84,-131.67 248.84,-179.07 248.84,-179.07 248.84,-185.07 242.84,-191.07 236.84,-191.07"/>
<text xml:space="preserve" text-anchor="middle" x="148.45" y="-172.47" font-family="Arial" font-size="12.00" fill="#e6edf3">Stage 6: Persist telemetry</text>
<text xml:space="preserve" text-anchor="middle" x="148.45" y="-158.22" font-family="Arial" font-size="12.00" fill="#e6edf3">run.json, lane artifacts, grading IO</text>
<text xml:space="preserve" text-anchor="middle" x="148.45" y="-143.97" font-family="Arial" font-size="12.00" fill="#e6edf3">local: .pi/lab/...</text>
<text xml:space="preserve" text-anchor="middle" x="148.45" y="-129.72" font-family="Arial" font-size="12.00" fill="#e6edf3">global: ~/.pi/agent/lab/...</text>
</g>
<!-- apply&#45;&gt;persist -->
<g id="edge10" class="edge">
<title>apply&#45;&gt;persist</title>
<path fill="none" stroke="#8b949e" stroke-width="1.3" d="M148.45,-249.74C148.45,-249.74 148.45,-201.57 148.45,-201.57"/>
<polygon fill="#8b949e" stroke="#8b949e" stroke-width="1.3" points="151.25,-201.57 148.45,-193.57 145.65,-201.57 151.25,-201.57"/>
</g>
<!-- end -->
<g id="node10" class="node">
<title>end</title>
<ellipse fill="#1b2a1e" stroke="#3fb950" stroke-width="1.2" cx="148.45" cy="-30.33" rx="68.26" ry="30.33"/>
<text xml:space="preserve" text-anchor="middle" x="148.45" y="-33.18" font-family="Arial" font-size="12.00" fill="#e6edf3">Tool call end /</text>
<text xml:space="preserve" text-anchor="middle" x="148.45" y="-18.93" font-family="Arial" font-size="12.00" fill="#e6edf3">continue turn</text>
</g>
<!-- persist&#45;&gt;end -->
<g id="edge11" class="edge">
<title>persist&#45;&gt;end</title>
<path fill="none" stroke="#8b949e" stroke-width="1.3" d="M148.45,-119.2C148.45,-119.2 148.45,-70.89 148.45,-70.89"/>
<polygon fill="#8b949e" stroke="#8b949e" stroke-width="1.3" points="151.25,-70.89 148.45,-62.89 145.65,-70.89 151.25,-70.89"/>
</g>
</g>
</svg>
