<?xml version="1.0" encoding="UTF-8" standalone="no"?>
<!DOCTYPE svg PUBLIC "-//W3C//DTD SVG 1.1//EN"
 "http://www.w3.org/Graphics/SVG/1.1/DTD/svg11.dtd">
<!-- Generated by graphviz version 14.1.4 (20260321.0153)
 -->
<!-- Title: PiLabFlow Pages: 1 -->
<svg width="1350pt" height="2837pt"
 viewBox="0.00 0.00 1350.00 2837.00" xmlns="http://www.w3.org/2000/svg" xmlns:xlink="http://www.w3.org/1999/xlink">
<g id="graph0" class="graph" transform="scale(2.57101 2.57101) rotate(0) translate(4 1099.52)">
<title>PiLabFlow</title>
<polygon fill="white" stroke="none" points="-4,4 -4,-1099.52 521.09,-1099.52 521.09,4 -4,4"/>
<text xml:space="preserve" text-anchor="middle" x="258.54" y="-1078.22" font-family="Arial" font-size="14.00">pi&#45;lab extension flow</text>
<text xml:space="preserve" text-anchor="middle" x="258.54" y="-1062.47" font-family="Arial" font-size="14.00">(intercept → isolate → execute → select → persist)</text>
<g id="clust1" class="cluster">
<title>cluster_exec</title>
<path fill="white" stroke="#e2e8f0" d="M20,-372C20,-372 394,-372 394,-372 400,-372 406,-378 406,-384 406,-384 406,-659.27 406,-659.27 406,-665.27 400,-671.27 394,-671.27 394,-671.27 20,-671.27 20,-671.27 14,-671.27 8,-665.27 8,-659.27 8,-659.27 8,-384 8,-384 8,-378 14,-372 20,-372"/>
<text xml:space="preserve" text-anchor="middle" x="207" y="-653.97" font-family="Arial" font-size="14.00">Stage 4: Execute</text>
</g>
<!-- start -->
<g id="node1" class="node">
<title>start</title>
<ellipse fill="#eef2ff" stroke="#c7d2fe" cx="301" cy="-1030.91" rx="64.47" ry="25.12"/>
<text xml:space="preserve" text-anchor="middle" x="301" y="-1033.41" font-family="Arial" font-size="10.00">User / LLM</text>
<text xml:space="preserve" text-anchor="middle" x="301" y="-1021.41" font-family="Arial" font-size="10.00">issues tool call</text>
</g>
<!-- intercept -->
<g id="node2" class="node">
<title>intercept</title>
<path fill="#f8fafc" stroke="#cbd5e1" d="M355.21,-946.79C355.21,-946.79 246.79,-946.79 246.79,-946.79 240.79,-946.79 234.79,-940.79 234.79,-934.79 234.79,-934.79 234.79,-922.79 234.79,-922.79 234.79,-916.79 240.79,-910.79 246.79,-910.79 246.79,-910.79 355.21,-910.79 355.21,-910.79 361.21,-910.79 367.21,-916.79 367.21,-922.79 367.21,-922.79 367.21,-934.79 367.21,-934.79 367.21,-940.79 361.21,-946.79 355.21,-946.79"/>
<text xml:space="preserve" text-anchor="middle" x="301" y="-931.29" font-family="Arial" font-size="10.00">Stage 1: Intercept</text>
<text xml:space="preserve" text-anchor="middle" x="301" y="-919.29" font-family="Arial" font-size="10.00">tool + trigger gate match</text>
</g>
<!-- start&#45;&gt;intercept -->
<g id="edge1" class="edge">
<title>start&#45;&gt;intercept</title>
<path fill="none" stroke="#64748b" d="M301,-1005.4C301,-1005.4 301,-958.46 301,-958.46"/>
<polygon fill="#64748b" stroke="#64748b" points="301,-948.46 305.5,-958.46 301,-952.24 301,-958.46 301,-958.46 301,-958.46 301,-952.24 296.5,-958.46 301,-948.46"/>
</g>
<!-- cfg -->
<g id="node3" class="node">
<title>cfg</title>
<path fill="#f8fafc" stroke="#cbd5e1" d="M362.71,-851.79C362.71,-851.79 239.29,-851.79 239.29,-851.79 233.29,-851.79 227.29,-845.79 227.29,-839.79 227.29,-839.79 227.29,-816.27 227.29,-816.27 227.29,-810.27 233.29,-804.27 239.29,-804.27 239.29,-804.27 362.71,-804.27 362.71,-804.27 368.71,-804.27 374.71,-810.27 374.71,-816.27 374.71,-816.27 374.71,-839.79 374.71,-839.79 374.71,-845.79 368.71,-851.79 362.71,-851.79"/>
<text xml:space="preserve" text-anchor="middle" x="301" y="-836.53" font-family="Arial" font-size="10.00">Stage 2: Load experiments</text>
<text xml:space="preserve" text-anchor="middle" x="301" y="-824.53" font-family="Arial" font-size="10.00">(project + package + global)</text>
<text xml:space="preserve" text-anchor="middle" x="301" y="-812.53" font-family="Arial" font-size="10.00">JSON&#45;only config</text>
</g>
<!-- intercept&#45;&gt;cfg -->
<g id="edge2" class="edge">
<title>intercept&#45;&gt;cfg</title>
<path fill="none" stroke="#64748b" d="M301,-910.31C301,-910.31 301,-863.32 301,-863.32"/>
<polygon fill="#64748b" stroke="#64748b" points="301,-853.32 305.5,-863.32 301,-857.1 301,-863.32 301,-863.32 301,-863.32 301,-857.1 296.5,-863.32 301,-853.32"/>
</g>
<!-- fork -->
<g id="node4" class="node">
<title>fork</title>
<path fill="#f8fafc" stroke="#cbd5e1" d="M375.46,-745.27C375.46,-745.27 226.54,-745.27 226.54,-745.27 220.54,-745.27 214.54,-739.27 214.54,-733.27 214.54,-733.27 214.54,-721.27 214.54,-721.27 214.54,-715.27 220.54,-709.27 226.54,-709.27 226.54,-709.27 375.46,-709.27 375.46,-709.27 381.46,-709.27 387.46,-715.27 387.46,-721.27 387.46,-721.27 387.46,-733.27 387.46,-733.27 387.46,-739.27 381.46,-745.27 375.46,-745.27"/>
<text xml:space="preserve" text-anchor="middle" x="301" y="-729.77" font-family="Arial" font-size="10.00">Stage 3: Fork lanes</text>
<text xml:space="preserve" text-anchor="middle" x="301" y="-717.77" font-family="Arial" font-size="10.00">create isolated worktrees per lane</text>
</g>
<!-- cfg&#45;&gt;fork -->
<g id="edge3" class="edge">
<title>cfg&#45;&gt;fork</title>
<path fill="none" stroke="#64748b" d="M301,-803.9C301,-803.9 301,-756.75 301,-756.75"/>
<polygon fill="#64748b" stroke="#64748b" points="301,-746.75 305.5,-756.75 301,-750.53 301,-756.75 301,-756.75 301,-756.75 301,-750.53 296.5,-756.75 301,-746.75"/>
</g>
<!-- fixed -->
<g id="node5" class="node">
<title>fixed</title>
<path fill="#f8fafc" stroke="#cbd5e1" d="M360.08,-639.52C360.08,-639.52 241.92,-639.52 241.92,-639.52 235.92,-639.52 229.92,-633.52 229.92,-627.52 229.92,-627.52 229.92,-615.52 229.92,-615.52 229.92,-609.52 235.92,-603.52 241.92,-603.52 241.92,-603.52 360.08,-603.52 360.08,-603.52 366.08,-603.52 372.08,-609.52 372.08,-615.52 372.08,-615.52 372.08,-627.52 372.08,-627.52 372.08,-633.52 366.08,-639.52 360.08,-639.52"/>
<text xml:space="preserve" text-anchor="middle" x="301" y="-624.02" font-family="Arial" font-size="10.00">fixed_args</text>
<text xml:space="preserve" text-anchor="middle" x="301" y="-612.02" font-family="Arial" font-size="10.00">try direct lane harness first</text>
</g>
<!-- fork&#45;&gt;fixed -->
<g id="edge4" class="edge">
<title>fork&#45;&gt;fixed</title>
<path fill="none" stroke="#64748b" d="M301,-708.85C301,-708.85 301,-650.95 301,-650.95"/>
<polygon fill="#64748b" stroke="#64748b" points="301,-640.95 305.5,-650.95 301,-644.73 301,-650.95 301,-650.95 301,-650.95 301,-644.73 296.5,-650.95 301,-640.95"/>
</g>
<!-- prompt -->
<g id="node6" class="node">
<title>prompt</title>
<path fill="#f8fafc" stroke="#cbd5e1" d="M373.21,-427.52C373.21,-427.52 228.79,-427.52 228.79,-427.52 222.79,-427.52 216.79,-421.52 216.79,-415.52 216.79,-415.52 216.79,-392 216.79,-392 216.79,-386 222.79,-380 228.79,-380 228.79,-380 373.21,-380 373.21,-380 379.21,-380 385.21,-386 385.21,-392 385.21,-392 385.21,-415.52 385.21,-415.52 385.21,-421.52 379.21,-427.52 373.21,-427.52"/>
<text xml:space="preserve" text-anchor="middle" x="301" y="-412.26" font-family="Arial" font-size="10.00">lane_single_call / lane_multi_call</text>
<text xml:space="preserve" text-anchor="middle" x="301" y="-400.26" font-family="Arial" font-size="10.00">or forced prompt mode</text>
<text xml:space="preserve" text-anchor="middle" x="301" y="-388.26" font-family="Arial" font-size="10.00">use pi subprocess</text>
</g>
<!-- fixed&#45;&gt;prompt -->
<g id="edge5" class="edge">
<title>fixed&#45;&gt;prompt</title>
<path fill="none" stroke="#64748b" d="M229.6,-622C206,-622 185.66,-622 185.66,-622 185.66,-622 185.66,-404 185.66,-404 185.66,-404 205.35,-404 205.35,-404"/>
<polygon fill="#64748b" stroke="#64748b" points="215.35,-404 205.35,-408.5 211.57,-404 205.35,-404 205.35,-404 205.35,-404 211.57,-404 205.35,-399.5 215.35,-404"/>
<text xml:space="preserve" text-anchor="middle" x="109.62" y="-512.02" font-family="Arial" font-size="10.00">force prompt / not fixed</text>
</g>
<!-- fallback -->
<g id="node7" class="node">
<title>fallback</title>
<path fill="#f8fafc" stroke="#cbd5e1" d="M386.33,-533.52C386.33,-533.52 215.67,-533.52 215.67,-533.52 209.67,-533.52 203.67,-527.52 203.67,-521.52 203.67,-521.52 203.67,-509.52 203.67,-509.52 203.67,-503.52 209.67,-497.52 215.67,-497.52 215.67,-497.52 386.33,-497.52 386.33,-497.52 392.33,-497.52 398.33,-503.52 398.33,-509.52 398.33,-509.52 398.33,-521.52 398.33,-521.52 398.33,-527.52 392.33,-533.52 386.33,-533.52"/>
<text xml:space="preserve" text-anchor="middle" x="301" y="-518.02" font-family="Arial" font-size="10.00">direct unsupported/fails</text>
<text xml:space="preserve" text-anchor="middle" x="301" y="-506.02" font-family="Arial" font-size="10.00">&#45;&gt; fallback reason + safe prompt mode</text>
</g>
<!-- fixed&#45;&gt;fallback -->
<g id="edge6" class="edge">
<title>fixed&#45;&gt;fallback</title>
<path fill="none" stroke="#64748b" d="M301,-603.06C301,-603.06 301,-544.99 301,-544.99"/>
<polygon fill="#64748b" stroke="#64748b" points="301,-534.99 305.5,-544.99 301,-538.77 301,-544.99 301,-544.99 301,-544.99 301,-538.77 296.5,-544.99 301,-534.99"/>
<text xml:space="preserve" text-anchor="middle" x="337" y="-565.02" font-family="Arial" font-size="10.00">unsupported API</text>
</g>
<!-- select -->
<g id="node8" class="node">
<title>select</title>
<path fill="#f8fafc" stroke="#cbd5e1" d="M479.96,-321C479.96,-321 340.04,-321 340.04,-321 334.04,-321 328.04,-315 328.04,-309 328.04,-309 328.04,-297 328.04,-297 328.04,-291 334.04,-285 340.04,-285 340.04,-285 479.96,-285 479.96,-285 485.96,-285 491.96,-291 491.96,-297 491.96,-297 491.96,-309 491.96,-309 491.96,-315 485.96,-321 479.96,-321"/>
<text xml:space="preserve" text-anchor="middle" x="410" y="-305.5" font-family="Arial" font-size="10.00">Stage 5: Select winner</text>
<text xml:space="preserve" text-anchor="middle" x="410" y="-293.5" font-family="Arial" font-size="10.00">hardcoded | formula | llm | blend</text>
</g>
<!-- fixed&#45;&gt;select -->
<g id="edge9" class="edge">
<title>fixed&#45;&gt;select</title>
<path fill="none" stroke="#64748b" d="M372.23,-622C408.55,-622 445.15,-622 445.15,-622 445.15,-622 445.15,-332.28 445.15,-332.28"/>
<polygon fill="#64748b" stroke="#64748b" points="445.15,-322.28 449.65,-332.28 445.15,-326.06 445.15,-332.28 445.15,-332.28 445.15,-332.28 445.15,-326.06 440.65,-332.28 445.15,-322.28"/>
<text xml:space="preserve" text-anchor="middle" x="481.38" y="-459.02" font-family="Arial" font-size="10.00">success</text>
</g>
<!-- prompt&#45;&gt;select -->
<g id="edge8" class="edge">
<title>prompt&#45;&gt;select</title>
<path fill="none" stroke="#64748b" d="M356.62,-379.63C356.62,-379.63 356.62,-332.48 356.62,-332.48"/>
<polygon fill="#64748b" stroke="#64748b" points="356.63,-322.48 361.13,-332.48 356.63,-326.26 356.63,-332.48 356.63,-332.48 356.63,-332.48 356.63,-326.26 352.13,-332.48 356.63,-322.48"/>
</g>
<!-- fallback&#45;&gt;prompt -->
<g id="edge7" class="edge">
<title>fallback&#45;&gt;prompt</title>
<path fill="none" stroke="#64748b" d="M301,-497.07C301,-497.07 301,-438.92 301,-438.92"/>
<polygon fill="#64748b" stroke="#64748b" points="301,-428.92 305.5,-438.92 301,-432.71 301,-438.92 301,-438.92 301,-438.92 301,-432.71 296.5,-438.92 301,-428.92"/>
</g>
<!-- apply -->
<g id="node9" class="node">
<title>apply</title>
<path fill="#f8fafc" stroke="#cbd5e1" d="M464.21,-226C464.21,-226 355.79,-226 355.79,-226 349.79,-226 343.79,-220 343.79,-214 343.79,-214 343.79,-202 343.79,-202 343.79,-196 349.79,-190 355.79,-190 355.79,-190 464.21,-190 464.21,-190 470.21,-190 476.21,-196 476.21,-202 476.21,-202 476.21,-214 476.21,-214 476.21,-220 470.21,-226 464.21,-226"/>
<text xml:space="preserve" text-anchor="middle" x="410" y="-210.5" font-family="Arial" font-size="10.00">Stage 6: Apply output</text>
<text xml:space="preserve" text-anchor="middle" x="410" y="-198.5" font-family="Arial" font-size="10.00">patch + return tool result</text>
</g>
<!-- select&#45;&gt;apply -->
<g id="edge10" class="edge">
<title>select&#45;&gt;apply</title>
<path fill="none" stroke="#64748b" d="M410,-284.68C410,-284.68 410,-237.48 410,-237.48"/>
<polygon fill="#64748b" stroke="#64748b" points="410,-227.48 414.5,-237.48 410,-231.26 410,-237.48 410,-237.48 410,-237.48 410,-231.26 405.5,-237.48 410,-227.48"/>
</g>
<!-- telemetry -->
<g id="node10" class="node">
<title>telemetry</title>
<path fill="#eff6ff" stroke="#93c5fd" d="M505.09,-131C505.09,-131 314.92,-131 314.92,-131 308.92,-131 302.92,-125 302.92,-119 302.92,-119 302.92,-107 302.92,-107 302.92,-101 308.92,-95 314.92,-95 314.92,-95 505.09,-95 505.09,-95 511.09,-95 517.09,-101 517.09,-107 517.09,-107 517.09,-119 517.09,-119 517.09,-125 511.09,-131 505.09,-131"/>
<text xml:space="preserve" text-anchor="middle" x="410" y="-115.5" font-family="Arial" font-size="10.00">Persist telemetry</text>
<text xml:space="preserve" text-anchor="middle" x="410" y="-103.5" font-family="Arial" font-size="10.00">run.json, lane artifacts, grading input/output</text>
</g>
<!-- apply&#45;&gt;telemetry -->
<g id="edge11" class="edge">
<title>apply&#45;&gt;telemetry</title>
<path fill="none" stroke="#64748b" d="M410,-189.68C410,-189.68 410,-142.48 410,-142.48"/>
<polygon fill="#64748b" stroke="#64748b" points="410,-132.48 414.5,-142.48 410,-136.26 410,-142.48 410,-142.48 410,-142.48 410,-136.26 405.5,-142.48 410,-132.48"/>
</g>
<!-- done -->
<g id="node11" class="node">
<title>done</title>
<ellipse fill="#dcfce7" stroke="#86efac" cx="410" cy="-18" rx="28.51" ry="18"/>
<text xml:space="preserve" text-anchor="middle" x="410" y="-14.5" font-family="Arial" font-size="10.00">End</text>
</g>
<!-- telemetry&#45;&gt;done -->
<g id="edge12" class="edge">
<title>telemetry&#45;&gt;done</title>
<path fill="none" stroke="#64748b" d="M410,-94.68C410,-94.68 410,-47.48 410,-47.48"/>
<polygon fill="#64748b" stroke="#64748b" points="410,-37.48 414.5,-47.48 410,-41.26 410,-47.48 410,-47.48 410,-47.48 410,-41.26 405.5,-47.48 410,-37.48"/>
</g>
</g>
</svg>
